<svg xmlns="http://www.w3.org/2000/svg" width="64" height="64" viewBox="0 0 64 64"><rect width="100%" height="100%" fill="#DDDDDD"/><path fill="#999999" d="M15.015 28.905h.71v5.06h-.82v-3.27q0-.19.02-.42l-1.53 2.87q-.11.21-.34.21h-.13q-.22 0-.33-.21l-1.55-2.88.02.22q.01.12.01.21v3.27h-.83v-5.06h.82l.08.02q.03.01.06.05.03.03.06.08l1.52 2.81q.06.11.11.23t.1.25q.05-.13.1-.25.05-.13.11-.24l1.5-2.8q.02-.05.06-.08.03-.04.06-.05.04-.01.09-.02zm1.73 1.47h.87v3.59h-.87zm.99-1.05q0 .11-.05.21-.04.1-.12.17-.07.08-.17.12-.1.05-.22.05-.11 0-.21-.05-.1-.04-.17-.12-.08-.07-.12-.17-.05-.1-.05-.21t.05-.21q.04-.11.12-.18.07-.07.17-.12.1-.04.21-.04.12 0 .22.04.1.05.17.12.08.07.12.18.05.1.05.21m3.15 1.44-.2.31q-.03.06-.07.08t-.1.02-.13-.03q-.07-.04-.17-.08-.09-.05-.21-.08-.12-.04-.29-.04-.25 0-.4.11-.14.11-.14.28 0 .12.07.2.08.08.2.14t.28.1q.16.05.32.11.16.05.32.13.16.07.28.18.13.11.2.26.08.16.08.37 0 .26-.09.48-.1.22-.28.38t-.45.25-.62.09q-.18 0-.36-.04-.18-.03-.34-.09t-.3-.14-.24-.18l.2-.32q.04-.06.09-.1.05-.03.13-.03t.15.05q.08.04.17.1.09.05.22.1.13.04.33.04.15 0 .26-.04.11-.03.18-.09t.11-.14q.03-.08.03-.16 0-.13-.08-.21-.07-.08-.19-.14-.13-.06-.29-.11-.16-.04-.32-.1-.17-.06-.33-.13-.16-.08-.28-.19-.13-.12-.2-.29-.08-.16-.08-.4 0-.22.09-.42t.26-.35.42-.24.59-.09q.37 0 .67.13.31.12.51.32m3.08 0-.2.31q-.03.06-.07.08t-.1.02-.14-.03q-.07-.04-.16-.08-.1-.05-.22-.08-.12-.04-.28-.04-.26 0-.4.11-.15.11-.15.28 0 .12.08.2.07.08.2.14.12.06.28.1.16.05.32.11.16.05.32.13.16.07.28.18t.2.26q.08.16.08.37 0 .26-.1.48-.09.22-.27.38t-.45.25-.62.09q-.19 0-.36-.04-.18-.03-.34-.09t-.3-.14-.25-.18l.2-.32q.04-.06.09-.1.06-.03.14-.03t.15.05q.07.04.17.1.09.05.22.1.13.04.32.04.16 0 .27-.04.11-.03.18-.09t.1-.14q.04-.08.04-.16 0-.13-.08-.21-.07-.08-.2-.14-.12-.06-.28-.11-.16-.04-.33-.1-.16-.06-.32-.13-.16-.08-.29-.19-.12-.12-.2-.29-.07-.16-.07-.4 0-.22.09-.42.08-.2.25-.35t.43-.24q.25-.09.58-.09.37 0 .68.13.3.12.51.32m.71-.39h.87v3.59h-.87zm.99-1.05q0 .11-.04.21-.05.1-.13.17-.07.08-.17.12-.1.05-.22.05-.11 0-.21-.05-.1-.04-.17-.12-.08-.07-.12-.17t-.04-.21.04-.21q.04-.11.12-.18.07-.07.17-.12.1-.04.21-.04.12 0 .22.04.1.05.17.12.08.07.13.18.04.1.04.21m1.51 1.21.06.28q.11-.11.23-.2t.26-.16q.13-.06.29-.1.15-.04.33-.04.3 0 .52.1.23.1.38.28.16.18.23.43.08.25.08.55v2.29h-.86v-2.29q0-.32-.15-.5-.15-.19-.46-.19-.22 0-.42.11-.2.1-.37.27v2.6h-.87v-3.59h.53q.17 0 .22.16m4.51 1.55q.17 0 .28-.05.12-.04.2-.12.08-.07.12-.18t.04-.24q0-.27-.16-.42-.16-.16-.48-.16-.31 0-.47.16-.16.15-.16.42 0 .12.04.23t.12.19.2.12q.12.05.27.05m.98 2.04q0-.1-.06-.17t-.17-.1q-.11-.04-.26-.06-.14-.02-.31-.02l-.33-.02q-.17-.01-.34-.03-.14.08-.23.19t-.09.25q0 .1.05.18.04.08.15.14.1.06.26.09.17.04.41.04t.41-.04q.18-.04.29-.1.12-.07.17-.15.05-.09.05-.2m-.17-3.63h1.03v.32q0 .16-.18.19l-.33.06q.08.19.08.41 0 .26-.11.48-.11.21-.29.36-.19.16-.45.24t-.56.08q-.1 0-.2-.01t-.19-.03q-.17.1-.17.23 0 .11.1.16t.27.07q.16.02.37.03.21 0 .43.02t.43.06.38.14q.16.09.26.26.1.16.1.41 0 .24-.12.47-.12.22-.34.4-.22.17-.54.28-.33.1-.74.1t-.71-.08q-.3-.07-.5-.21-.2-.13-.3-.3-.09-.17-.09-.35 0-.26.15-.43t.42-.27q-.15-.07-.23-.19-.08-.13-.08-.33 0-.08.03-.16.03-.09.08-.17.06-.09.15-.16.09-.08.2-.14-.27-.14-.42-.39-.16-.24-.16-.57 0-.27.11-.48.1-.22.29-.37.2-.15.46-.23t.56-.08q.24 0 .44.04.2.05.37.14m1.55 1.72v-.72h1.81v.72zm3.84-.16h1.61l-.62-1.68-.09-.27q-.05-.15-.1-.33-.04.18-.09.33-.05.16-.1.27zm1.28-3.15 1.99 5.06h-.73q-.12 0-.2-.06-.07-.06-.11-.15l-.38-1.04h-2.1l-.37 1.04q-.03.08-.11.14-.08.07-.2.07h-.74l2-5.06zm3.14 1.69.06.4q.16-.32.4-.5.23-.19.54-.19.25 0 .4.11l-.06.65q-.01.06-.05.09-.03.02-.09.02-.05 0-.15-.01-.1-.02-.2-.02-.15 0-.26.04t-.2.12-.16.19-.12.26v2.21h-.87v-3.59h.51q.13 0 .18.05.06.04.07.17m3.05 3.43q-.47 0-.72-.27-.25-.26-.25-.73v-2h-.37q-.07 0-.12-.05-.05-.04-.05-.14v-.34l.58-.09.18-.98q.02-.07.07-.11t.13-.04h.44v1.13h.96v.62h-.96v1.94q0 .17.09.27.08.09.22.09.08 0 .14-.02.05-.02.09-.04t.07-.04.07-.02q.03 0 .06.02.02.02.05.06l.26.42q-.19.16-.43.24-.25.08-.51.08m1.43-3.65h.87v3.59h-.87zm.99-1.05q0 .11-.04.21-.05.1-.13.17-.07.08-.17.12-.1.05-.22.05-.11 0-.21-.05-.1-.04-.17-.12-.08-.07-.12-.17-.05-.1-.05-.21t.05-.21q.04-.11.12-.18.07-.07.17-.12.1-.04.21-.04.12 0 .22.04.1.05.17.12.08.07.13.18.04.1.04.21m3.15 1.44-.2.31q-.03.06-.07.08t-.1.02-.13-.03q-.07-.04-.17-.08-.09-.05-.21-.08-.12-.04-.29-.04-.25 0-.4.11-.14.11-.14.28 0 .12.07.2.08.08.2.14t.28.1q.16.05.32.11.17.05.32.13.16.07.28.18.13.11.2.26.08.16.08.37 0 .26-.09.48-.1.22-.28.38t-.45.25-.62.09q-.18 0-.36-.04-.18-.03-.34-.09t-.3-.14-.24-.18l.2-.32q.04-.06.09-.1.05-.03.13-.03t.15.05q.08.04.17.1.09.05.22.1.13.04.33.04.15 0 .26-.04.11-.03.18-.09t.11-.14q.03-.08.03-.16 0-.13-.07-.21-.08-.08-.2-.14-.13-.06-.29-.11-.16-.04-.32-.1-.17-.06-.33-.13-.16-.08-.28-.19-.13-.12-.2-.29-.08-.16-.08-.4 0-.22.09-.42t.26-.35.42-.24q.26-.09.59-.09.37 0 .67.13.31.12.51.32m1.89 3.26q-.47 0-.72-.27-.25-.26-.25-.73v-2h-.37q-.07 0-.12-.05-.05-.04-.05-.14v-.34l.58-.09.18-.98q.02-.07.07-.11t.12-.04h.45v1.13h.96v.62h-.96v1.94q0 .17.08.27.09.09.23.09.08 0 .13-.02.06-.02.1-.04t.07-.04.06-.02q.04 0 .07.02.02.02.05.06l.26.42q-.19.16-.44.24-.24.08-.5.08"/></svg>