<svg xmlns="http://www.w3.org/2000/svg" width="130" height="200" viewBox="0 0 130 200"><rect width="100%" height="100%" fill="#DDDDDD"/><path fill="#999999" d="M31.585 95.14h1.11v7.95h-1.3v-5.14q0-.3.03-.66l-2.4 4.51q-.17.33-.52.33h-.21q-.35 0-.52-.33l-2.43-4.53.02.36q.01.17.01.32v5.14h-1.3v-7.95h1.29q.07.01.13.03.05.02.1.07t.09.13l2.38 4.42q.1.18.18.36.08.19.15.39.08-.21.16-.4l.18-.36 2.35-4.41q.04-.08.09-.13t.11-.07.13-.03zm2.71 2.31h1.37v5.64h-1.37zm1.56-1.65q0 .18-.08.33-.07.16-.19.27-.11.12-.27.19t-.34.07-.34-.07q-.15-.07-.27-.19-.11-.11-.18-.27-.07-.15-.07-.33t.07-.34.18-.27q.12-.12.27-.19.16-.07.34-.07t.34.07.27.19q.12.11.19.27.08.16.08.34m4.95 2.26-.31.49q-.06.08-.12.12t-.15.04q-.1 0-.21-.06-.12-.05-.26-.12-.15-.07-.34-.13-.19-.05-.45-.05-.4 0-.63.17t-.23.44q0 .19.12.31t.31.22q.2.09.45.17.24.07.5.16.25.09.5.2t.44.28q.2.18.32.42t.12.58q0 .41-.15.75-.15.35-.43.6-.29.25-.71.39t-.97.14q-.29 0-.57-.05-.28-.06-.53-.15-.26-.09-.47-.22-.22-.13-.39-.27l.32-.52q.06-.1.14-.14.08-.05.21-.05t.24.07.26.15.35.16q.2.07.51.07.24 0 .41-.06.18-.06.29-.15.11-.1.16-.22.06-.12.06-.26 0-.19-.12-.32t-.32-.22q-.19-.09-.44-.17-.25-.07-.51-.16t-.51-.21q-.25-.11-.45-.3-.2-.18-.31-.44-.12-.27-.12-.64 0-.35.14-.66.13-.31.4-.55.27-.23.67-.37.39-.14.92-.14.58 0 1.06.19t.8.51m4.83 0-.31.49q-.05.08-.11.12t-.16.04-.21-.06l-.26-.12q-.15-.07-.34-.13-.19-.05-.45-.05-.4 0-.63.17-.22.17-.22.44 0 .19.11.31.12.12.32.22.19.09.44.17.25.07.5.16.26.09.51.2.24.11.44.28.19.18.31.42t.12.58q0 .41-.15.75-.14.35-.43.6-.28.25-.7.39t-.97.14q-.3 0-.57-.05-.28-.06-.54-.15-.25-.09-.47-.22t-.38-.27l.31-.52q.06-.1.14-.14.09-.05.21-.05.13 0 .24.07l.26.15q.15.08.35.16.2.07.51.07.24 0 .42-.06.17-.06.28-.15.12-.1.17-.22t.05-.26q0-.19-.12-.32t-.31-.22q-.2-.09-.45-.17-.25-.07-.51-.16t-.51-.21q-.25-.11-.45-.3-.19-.18-.31-.44-.12-.27-.12-.64 0-.35.14-.66t.4-.55q.27-.23.67-.37t.92-.14q.58 0 1.06.19t.8.51m1.13-.61h1.36v5.64h-1.36zm1.55-1.65q0 .18-.07.33-.07.16-.19.27-.12.12-.28.19t-.34.07-.33-.07q-.16-.07-.28-.19-.11-.11-.18-.27-.07-.15-.07-.33t.07-.34.18-.27q.12-.12.28-.19.15-.07.33-.07t.34.07.28.19q.12.11.19.27t.07.34m2.37 1.89.1.45q.17-.17.36-.32.19-.14.4-.24.21-.11.45-.16.25-.06.53-.06.46 0 .82.16.36.15.6.44.24.28.36.67.12.4.12.87v3.59h-1.35V99.5q0-.52-.24-.8t-.72-.28q-.35 0-.66.15-.31.16-.58.44v4.08h-1.36v-5.64h.83q.26 0 .34.24m7.09 2.44q.26 0 .44-.07.19-.07.31-.19.13-.12.19-.29.07-.17.07-.37 0-.42-.26-.67-.25-.24-.75-.24t-.75.24q-.25.25-.25.67 0 .2.07.37.06.17.18.29.13.12.32.19t.43.07m1.54 3.21q0-.16-.1-.27-.1-.1-.27-.16t-.4-.08q-.23-.03-.48-.05l-.53-.02q-.27-.01-.53-.04-.23.12-.37.29t-.14.4q0 .15.08.28.07.13.23.22.17.09.42.15.26.05.64.05t.65-.06q.28-.06.45-.16.18-.1.27-.24.08-.14.08-.31m-.27-5.7h1.62v.51q0 .24-.29.29l-.51.1q.12.29.12.63 0 .42-.17.76t-.46.58q-.3.23-.7.36-.41.13-.88.13-.16 0-.31-.02-.16-.01-.31-.04-.26.16-.26.36 0 .17.16.25.15.08.41.11t.59.04.68.04q.34.02.67.09t.59.22.42.4q.15.26.15.66 0 .38-.18.73-.19.35-.54.63-.34.27-.85.44t-1.16.17q-.64 0-1.11-.13-.47-.12-.79-.33-.31-.2-.47-.47-.15-.27-.15-.57 0-.39.24-.66.24-.26.66-.42-.23-.12-.36-.31t-.13-.51q0-.12.04-.26.05-.13.14-.27.09-.13.23-.25.14-.11.32-.21-.42-.23-.67-.61-.24-.39-.24-.91 0-.41.16-.75.17-.34.47-.58t.71-.37q.41-.12.89-.12.37 0 .69.07.32.08.58.22m2.44 2.69V99.2h2.84v1.13zm6.03-.24h2.53l-.97-2.65q-.07-.17-.15-.42l-.15-.52q-.07.28-.15.53-.08.24-.15.42zm2.02-4.95 3.12 7.95h-1.14q-.2 0-.32-.1-.12-.09-.18-.24l-.59-1.62h-3.3l-.59 1.62q-.04.13-.17.24-.13.1-.31.1h-1.16l3.13-7.95zm4.93 2.65.08.64q.27-.51.63-.8t.86-.29q.39 0 .63.17l-.09 1.02q-.03.1-.08.14t-.14.04-.25-.03q-.16-.02-.31-.02-.23 0-.4.06-.18.07-.32.19-.14.13-.25.3-.11.18-.2.4v3.48h-1.36v-5.64h.8q.21 0 .29.07.08.08.11.27m4.79 5.39q-.74 0-1.13-.42-.4-.41-.4-1.14v-3.16h-.57q-.12 0-.19-.07-.08-.07-.08-.21v-.54l.91-.15.28-1.54q.03-.11.11-.17t.2-.06h.7v1.78h1.51v.96h-1.51v3.06q0 .27.13.41.13.15.36.15.12 0 .21-.03.08-.03.15-.06.06-.03.11-.06t.1-.03q.06 0 .1.03.03.03.08.09l.41.66q-.3.25-.69.37-.38.13-.79.13m9.23-5.73h1.03l-1.79 5.64h-1.09q-.18 0-.26-.24l-1.01-3.26q-.05-.17-.09-.33t-.07-.33q-.03.17-.07.33-.04.17-.09.34l-1.03 3.25q-.07.24-.29.24h-1.05l-1.78-5.64h1.08q.15 0 .25.07.11.07.14.18l.81 3.01q.06.25.1.49.05.23.08.47.07-.24.13-.47.07-.24.15-.49l.93-3.02q.04-.11.13-.18.1-.07.24-.07h.6q.14 0 .24.07t.14.18l.9 3.02q.08.25.14.49l.12.48q.07-.47.21-.97l.83-3.01q.03-.11.13-.18t.24-.07m4.3-.09q.63 0 1.14.2.52.21.88.58.37.37.57.91.19.54.19 1.21t-.19 1.21q-.2.54-.57.92-.36.38-.88.58-.51.2-1.14.2t-1.15-.2-.88-.58q-.37-.38-.57-.92t-.2-1.21.2-1.21.57-.91q.36-.37.88-.58.52-.2 1.15-.2m0 4.77q.71 0 1.04-.48.34-.47.34-1.38t-.34-1.39q-.33-.48-1.04-.48t-1.06.48q-.34.48-.34 1.39t.34 1.38q.35.48 1.06.48m5.02-4.34.09.64q.26-.51.62-.8.37-.29.86-.29.39 0 .63.17l-.09 1.02q-.03.1-.08.14t-.14.04q-.08 0-.25-.03-.16-.02-.31-.02-.23 0-.4.06-.18.07-.32.19-.14.13-.25.3-.1.18-.2.4v3.48h-1.36v-5.64h.8q.21 0 .29.07.09.08.11.27m2.91-2.87h1.36v4.68h.25q.14 0 .22-.04.08-.03.16-.14l1.4-1.74q.09-.11.2-.17.1-.06.27-.06h1.25l-1.76 2.09q-.19.25-.41.38.12.08.21.19t.17.24l1.89 2.74h-1.23q-.16 0-.28-.05-.11-.05-.19-.19l-1.44-2.14q-.08-.13-.16-.17-.08-.03-.25-.03h-.3v2.58h-1.36z"/></svg>