<svg xmlns="http://www.w3.org/2000/svg" width="132" height="132" viewBox="0 0 132 132"><rect width="100%" height="100%" fill="#DDDDDD"/><path fill="#999999" d="M33.175 60.245h1.32v9.4h-1.54v-6.07q0-.37.03-.79l-2.84 5.34q-.2.38-.61.38h-.25q-.42 0-.62-.38l-2.87-5.36q.02.22.03.43.02.2.02.38v6.07h-1.55v-9.4h1.32q.12 0 .21.01.08 0 .15.03t.12.08q.06.06.11.16l2.81 5.22q.11.21.21.43.09.22.18.45.09-.24.19-.46.1-.23.21-.43l2.78-5.21q.05-.1.11-.16.05-.05.12-.08t.16-.03q.08-.01.2-.01m3.21 2.73h1.61v6.67h-1.61zm1.83-1.94q0 .21-.08.39-.09.18-.23.32-.14.13-.33.21-.18.08-.4.08-.21 0-.39-.08-.19-.08-.32-.21-.14-.14-.22-.32t-.08-.39q0-.22.08-.41.08-.18.22-.32.13-.14.32-.22.18-.08.39-.08.22 0 .4.08.19.08.33.22t.23.32q.08.19.08.41m5.85 2.66-.36.58q-.07.1-.14.15-.07.04-.18.04-.12 0-.25-.07-.13-.06-.31-.14t-.4-.15q-.22-.06-.53-.06-.47 0-.74.2t-.27.52q0 .22.14.37.14.14.37.25t.52.2.59.19q.31.11.6.24t.52.34q.23.2.37.49.14.28.14.69 0 .48-.17.88-.17.41-.51.71-.34.29-.84.46-.49.16-1.14.16-.35 0-.68-.06-.32-.06-.63-.17-.3-.11-.55-.26-.26-.15-.46-.33l.37-.61q.08-.11.17-.17.1-.05.25-.05t.28.08q.14.09.31.18.18.1.41.18.24.09.61.09.28 0 .49-.07.2-.07.33-.18.14-.11.2-.25.06-.15.06-.31 0-.23-.14-.38t-.37-.26-.53-.2q-.29-.09-.6-.19t-.6-.24q-.3-.14-.53-.36-.23-.21-.37-.52-.14-.32-.14-.76 0-.41.16-.78t.48-.65q.31-.27.79-.44.47-.16 1.08-.16.69 0 1.26.22.56.23.94.6m5.71 0-.36.58q-.06.1-.14.15-.07.04-.18.04t-.25-.07q-.13-.06-.31-.14-.17-.08-.4-.15-.22-.06-.53-.06-.47 0-.74.2t-.27.52q0 .22.14.37.14.14.37.25t.52.2q.3.09.6.19.3.11.59.24.3.13.53.34.23.2.37.49.14.28.14.69 0 .48-.18.88-.17.41-.51.71-.33.29-.83.46-.5.16-1.15.16-.34 0-.67-.06t-.63-.17-.56-.26-.45-.33l.37-.61q.07-.11.17-.17.09-.05.24-.05t.29.08q.13.09.31.18.17.1.41.18.23.09.6.09.29 0 .49-.07t.34-.18q.13-.11.19-.25.06-.15.06-.31 0-.23-.14-.38-.13-.15-.37-.26-.23-.11-.52-.2-.3-.09-.61-.19t-.6-.24q-.3-.14-.53-.36-.23-.21-.37-.52-.14-.32-.14-.76 0-.41.16-.78.17-.37.48-.65.32-.27.79-.44.47-.16 1.09-.16.69 0 1.25.22.57.23.94.6m1.34-.72h1.61v6.67h-1.61zm1.83-1.94q0 .21-.08.39-.09.18-.23.32-.14.13-.33.21t-.4.08-.39-.08q-.19-.08-.32-.21-.14-.14-.22-.32t-.08-.39q0-.22.08-.41.08-.18.22-.32.13-.14.32-.22.18-.08.39-.08t.4.08.33.22.23.32q.08.19.08.41m2.81 2.23.11.53q.2-.2.42-.37.23-.18.48-.3t.54-.18q.28-.07.62-.07.55 0 .97.18.42.19.7.52.29.34.43.8.15.47.15 1.03v4.24h-1.61v-4.24q0-.62-.28-.95-.28-.34-.85-.34-.41 0-.78.19-.36.19-.69.52v4.82h-1.6v-6.67h.98q.31 0 .41.29m8.38 2.88q.3 0 .52-.08t.36-.22q.15-.15.22-.35.08-.2.08-.44 0-.49-.3-.78-.29-.29-.88-.29t-.89.29-.3.78q0 .23.08.44.07.2.22.34.15.15.37.23t.52.08m1.81 3.8q0-.2-.12-.32-.11-.12-.32-.19-.2-.07-.47-.1t-.57-.05-.62-.03-.63-.05q-.27.15-.43.35-.17.2-.17.47 0 .17.09.33.09.15.28.26t.5.17q.3.06.74.06.45 0 .78-.07.32-.06.53-.18.22-.12.31-.29.1-.17.1-.36m-.32-6.74h1.92v.6q0 .28-.35.35l-.59.11q.13.34.13.75 0 .5-.2.9-.19.4-.54.67-.36.28-.83.44-.48.15-1.03.15-.2 0-.38-.02t-.36-.05q-.31.19-.31.42 0 .2.19.3.18.09.49.13.3.04.69.05t.8.04.8.11q.39.09.7.26.3.18.49.48.18.3.18.78 0 .44-.22.85-.21.42-.63.75-.41.32-1.01.52t-1.37.2q-.75 0-1.31-.15t-.93-.39-.55-.56q-.19-.32-.19-.66 0-.47.29-.79.28-.31.77-.5-.26-.14-.42-.37-.15-.22-.15-.59 0-.15.05-.31.06-.16.16-.32.11-.15.27-.29.17-.14.39-.25-.51-.28-.8-.73-.29-.46-.29-1.07 0-.49.2-.89t.55-.68q.36-.29.84-.44t1.06-.15q.43 0 .8.09.38.09.69.26m2.88 3.18v-1.34h3.37v1.34zm9.78-1.45h3.12v3.8q-.71.53-1.52.77t-1.73.24q-1.15 0-2.09-.35-.93-.36-1.59-1t-1.02-1.52q-.35-.88-.35-1.93 0-1.06.34-1.94.35-.89.98-1.52.63-.64 1.54-.99.9-.35 2.02-.35.58 0 1.07.09.5.09.93.25.42.16.77.38.35.23.65.51l-.5.79q-.12.19-.31.23t-.41-.1q-.21-.12-.43-.24-.21-.13-.48-.22-.26-.09-.59-.15-.32-.05-.75-.05-.7 0-1.26.23t-.96.67q-.4.43-.61 1.05-.22.61-.22 1.36 0 .81.23 1.44.24.63.65 1.07.42.44 1.02.67.59.23 1.32.23.52 0 .92-.11.41-.11.8-.3v-1.7h-1.18q-.17 0-.26-.09-.1-.1-.1-.23zm5.83.61h3.03q0-.31-.09-.59t-.26-.48q-.18-.21-.45-.33t-.63-.12q-.69 0-1.09.39-.4.4-.51 1.13m4.09.97h-4.12q.03.51.18.88.14.38.37.62.24.25.56.37t.71.12.67-.1q.29-.09.5-.2t.37-.2.31-.09q.2 0 .3.15l.46.59q-.27.31-.6.52t-.69.34q-.36.12-.74.18-.37.05-.72.05-.7 0-1.29-.23-.6-.23-1.04-.69-.45-.45-.7-1.11-.25-.67-.25-1.55 0-.68.22-1.28t.63-1.05q.41-.44 1.01-.7.59-.26 1.34-.26.63 0 1.16.2.54.2.92.59.38.38.6.95.22.56.22 1.28 0 .36-.08.49t-.3.13m2.97-3.25.11.53q.21-.2.43-.37.22-.18.47-.3t.54-.18q.29-.07.62-.07.55 0 .97.18.43.19.71.52.28.34.43.8.14.47.14 1.03v4.24h-1.6v-4.24q0-.62-.28-.95-.28-.34-.85-.34-.42 0-.78.19-.37.19-.69.52v4.82h-1.61v-6.67h.98q.32 0 .41.29m7.36.11.1.76q.31-.6.74-.94t1.01-.34q.47 0 .74.2l-.1 1.2q-.03.12-.09.17-.07.05-.17.05t-.29-.04q-.19-.03-.37-.03-.27 0-.48.08-.2.08-.37.22-.17.15-.29.36-.13.21-.24.47v4.11h-1.61v-6.67h.95q.24 0 .34.09t.13.31m4.7 2.17h3.03q0-.31-.09-.59t-.26-.48q-.18-.21-.45-.33t-.62-.12q-.7 0-1.1.39-.4.4-.51 1.13m4.1.97h-4.13q.04.51.18.88.14.38.38.62.23.25.55.37t.71.12.68-.1q.28-.09.49-.2t.37-.2.31-.09q.2 0 .3.15l.46.59q-.27.31-.6.52t-.69.34q-.36.12-.73.18-.38.05-.73.05-.69 0-1.29-.23t-1.04-.69q-.44-.45-.7-1.11-.25-.67-.25-1.55 0-.68.22-1.28t.63-1.05q.42-.44 1.01-.7.6-.26 1.34-.26.63 0 1.17.2.53.2.91.59.39.38.6.95.22.56.22 1.28 0 .36-.08.49-.07.13-.29.13"/></svg>