<svg xmlns="http://www.w3.org/2000/svg" width="567" height="800" viewBox="0 0 567 800"><rect width="100%" height="100%" fill="#DDDDDD"/><path fill="#999999" d="M143.77 379.68h4.66v33.26h-5.45v-21.48q0-1.29.14-2.79l-10.05 18.89q-.71 1.35-2.19 1.35h-.87q-1.47 0-2.18-1.35l-10.17-18.95q.07.76.11 1.49.05.74.05 1.36v21.48h-5.45v-33.26h4.67q.41 0 .71.03.3.02.54.11t.44.3.38.55l9.96 18.47q.39.74.72 1.52.34.78.66 1.61.32-.85.67-1.65.34-.79.73-1.53l9.82-18.42q.19-.34.39-.55.21-.21.45-.3t.54-.11q.3-.03.72-.03m11.36 9.66h5.7v23.6h-5.7zm6.48-6.87q0 .73-.3 1.38-.3.64-.79 1.12-.49.49-1.16.77-.67.29-1.43.29-.73 0-1.39-.29-.65-.28-1.14-.77-.48-.48-.77-1.12-.29-.65-.29-1.38 0-.76.29-1.43t.77-1.15q.49-.48 1.14-.77.66-.29 1.39-.29.76 0 1.43.29t1.16.77.79 1.15.3 1.43m20.7 9.43-1.29 2.04q-.23.37-.48.52t-.64.15q-.42 0-.89-.23t-1.09-.52-1.41-.52q-.8-.23-1.88-.23-1.68 0-2.63.72-.96.71-.96 1.86 0 .76.5 1.28.49.51 1.31.91.81.39 1.85.7 1.03.31 2.1.67 1.07.37 2.11.84 1.03.48 1.85 1.2.82.73 1.31 1.74.5 1.01.5 2.44 0 1.7-.61 3.13-.61 1.44-1.81 2.49t-2.95 1.63q-1.76.59-4.06.59-1.22 0-2.38-.22-1.17-.22-2.24-.61t-1.97-.92q-.91-.53-1.6-1.15l1.31-2.16q.25-.39.6-.6.34-.21.87-.21t1 .3 1.09.65q.62.34 1.46.64t2.13.3q1.01 0 1.74-.24.72-.24 1.19-.64.48-.39.69-.9.22-.52.22-1.07 0-.83-.49-1.36-.5-.53-1.31-.92-.82-.39-1.87-.7-1.04-.31-2.13-.68-1.1-.37-2.14-.86-1.05-.5-1.87-1.26-.81-.75-1.31-1.86-.49-1.1-.49-2.67 0-1.45.57-2.76.58-1.31 1.69-2.29 1.12-.97 2.79-1.56 1.66-.59 3.85-.59 2.44 0 4.44.81 2 .8 3.33 2.12m20.22 0-1.29 2.04q-.23.37-.48.52t-.65.15q-.41 0-.88-.23t-1.09-.52-1.42-.52q-.79-.23-1.87-.23-1.68 0-2.64.72-.95.71-.95 1.86 0 .76.49 1.28.5.51 1.32.91.81.39 1.85.7 1.03.31 2.1.67 1.07.37 2.11.84 1.03.48 1.85 1.2.81.73 1.31 1.74.49 1.01.49 2.44 0 1.7-.61 3.13-.61 1.44-1.8 2.49-1.2 1.05-2.96 1.63-1.76.59-4.06.59-1.22 0-2.38-.22t-2.23-.61-1.98-.92-1.6-1.15l1.32-2.16q.25-.39.59-.6.35-.21.88-.21t1 .3 1.09.65q.62.34 1.46.64t2.13.3q1.01 0 1.74-.24.72-.24 1.19-.64.47-.39.69-.9.22-.52.22-1.07 0-.83-.49-1.36-.5-.53-1.32-.92-.81-.39-1.86-.7t-2.14-.68-2.14-.86q-1.04-.5-1.86-1.26-.82-.75-1.31-1.86-.5-1.1-.5-2.67 0-1.45.58-2.76.57-1.31 1.69-2.29 1.12-.97 2.78-1.56 1.67-.59 3.86-.59 2.43 0 4.43.81 2.01.8 3.34 2.12m4.71-2.56h5.71v23.6h-5.71zm6.49-6.87q0 .73-.3 1.38-.3.64-.79 1.12-.5.49-1.16.77-.67.29-1.43.29-.74 0-1.39-.29-.66-.28-1.14-.77-.48-.48-.77-1.12-.29-.65-.29-1.38 0-.76.29-1.43t.77-1.15 1.14-.77q.65-.29 1.39-.29.76 0 1.43.29.66.29 1.16.77.49.48.79 1.15t.3 1.43m9.94 7.91.39 1.86q.71-.71 1.5-1.32.8-.61 1.68-1.04.89-.42 1.9-.66 1.01-.25 2.21-.25 1.93 0 3.43.66 1.49.65 2.49 1.84 1 1.18 1.52 2.83.52 1.64.52 3.62v15.02h-5.68v-15.02q0-2.16-.99-3.35-.99-1.18-3.02-1.18-1.47 0-2.76.67-1.28.66-2.43 1.81v17.07h-5.69v-23.6h3.48q1.1 0 1.45 1.04m29.64 10.19q1.06 0 1.84-.29.79-.29 1.3-.8.52-.5.79-1.21.26-.72.26-1.57 0-1.75-1.05-2.77-1.04-1.02-3.14-1.02-2.09 0-3.14 1.02-1.04 1.02-1.04 2.77 0 .83.26 1.54.27.72.78 1.23.52.52 1.32.81.79.29 1.82.29m6.42 13.43q0-.69-.41-1.13-.42-.44-1.13-.68t-1.67-.35q-.95-.12-2.02-.18-1.07-.05-2.21-.1t-2.22-.18q-.94.53-1.53 1.24t-.59 1.65q0 .63.32 1.17.31.54.98.93.68.39 1.76.61 1.08.21 2.65.21 1.59 0 2.74-.24t1.89-.66q.75-.43 1.1-1.02.34-.58.34-1.27m-1.13-23.85h6.79v2.11q0 1.02-1.22 1.25l-2.12.39q.49 1.22.49 2.66 0 1.75-.7 3.17-.71 1.41-1.95 2.4t-2.93 1.53-3.65.54q-.69 0-1.33-.07t-1.27-.18q-1.1.66-1.1 1.49 0 .71.66 1.05.65.33 1.73.47t2.46.17q1.38.04 2.83.15 1.45.12 2.83.4 1.38.29 2.46.91t1.74 1.69q.65 1.07.65 2.75 0 1.57-.77 3.04t-2.23 2.62-3.58 1.85q-2.13.7-4.85.7-2.66 0-4.64-.51-1.98-.52-3.29-1.38-1.31-.87-1.96-1.99-.64-1.13-.64-2.35 0-1.66 1-2.77 1-1.12 2.75-1.78-.94-.49-1.5-1.29-.55-.81-.55-2.12 0-.53.2-1.09.19-.56.57-1.12.38-.55.96-1.04.57-.5 1.35-.89-1.79-.96-2.81-2.57-1.03-1.61-1.03-3.78 0-1.74.7-3.16.71-1.41 1.96-2.41t2.97-1.53q1.71-.53 3.73-.53 1.52 0 2.86.31 1.33.31 2.43.91m10.19 11.27v-4.74h11.92v4.74zm25.23-1.04h10.58l-4.04-11.06q-.3-.74-.63-1.75-.32-1.01-.64-2.18-.3 1.17-.62 2.19-.32 1.03-.62 1.79zm8.44-20.7 13.07 33.26h-4.79q-.8 0-1.31-.4-.5-.4-.76-1l-2.48-6.79h-13.78l-2.48 6.79q-.18.53-.71.96-.53.44-1.31.44h-4.83l13.08-33.26zm20.64 11.09.34 2.67q1.1-2.12 2.62-3.33t3.59-1.21q1.63 0 2.62.72l-.37 4.25q-.11.42-.33.59t-.59.17q-.34 0-1.02-.11-.68-.12-1.32-.12-.94 0-1.68.28-.74.27-1.32.79-.59.52-1.04 1.26-.45.73-.84 1.67v14.54h-5.68v-23.6h3.34q.87 0 1.22.31.34.31.46 1.12m20.01 22.54q-3.09 0-4.73-1.74-1.65-1.73-1.65-4.79V393.6h-2.41q-.46 0-.78-.3t-.32-.9v-2.25l3.79-.62 1.2-6.44q.11-.46.43-.72.33-.25.83-.25h2.95v7.43h6.3v4.05h-6.3v12.79q0 1.1.54 1.72t1.48.62q.53 0 .89-.13.35-.12.62-.26.26-.14.47-.26.2-.13.41-.13.25 0 .42.13.16.12.34.37l1.7 2.77q-1.24 1.03-2.85 1.56t-3.33.53m38.61-23.97h4.33l-7.5 23.6h-4.56q-.78 0-1.08-1.01l-4.23-13.64q-.21-.69-.38-1.37t-.29-1.37q-.13.69-.31 1.39-.17.71-.38 1.39l-4.3 13.6q-.27 1.01-1.22 1.01h-4.37l-7.47-23.6h4.53q.62 0 1.06.3t.57.76l3.38 12.6q.26 1.04.45 2.03.2.99.34 1.98.25-.99.54-1.98.28-.99.61-2.03l3.91-12.65q.13-.46.54-.75.4-.3.97-.3h2.51q.6 0 1.03.3.42.29.56.75l3.79 12.65q.3 1.04.57 2.04.26 1 .51 1.99.3-1.96.86-4.03l3.47-12.6q.16-.46.57-.76.42-.3.99-.3m17.99-.37q2.62 0 4.77.86 2.15.85 3.68 2.41t2.36 3.82q.83 2.25.83 5.03 0 2.81-.83 5.06-.83 2.26-2.36 3.85-1.53 1.58-3.68 2.43t-4.77.85q-2.65 0-4.81-.85t-3.69-2.43q-1.53-1.59-2.37-3.85-.84-2.25-.84-5.06 0-2.78.84-5.03.84-2.26 2.37-3.82t3.69-2.41q2.16-.86 4.81-.86m0 19.94q2.94 0 4.36-1.97 1.41-1.98 1.41-5.8t-1.41-5.82q-1.42-2-4.36-2-2.99 0-4.43 2.01-1.44 2.02-1.44 5.81 0 3.8 1.44 5.79 1.44 1.98 4.43 1.98m21-18.14.34 2.67q1.11-2.12 2.62-3.33 1.52-1.21 3.59-1.21 1.64 0 2.62.72l-.36 4.25q-.12.42-.34.59t-.58.17q-.35 0-1.03-.11-.68-.12-1.32-.12-.94 0-1.68.28-.73.27-1.32.79t-1.04 1.26q-.44.73-.84 1.67v14.54h-5.68v-23.6h3.34q.87 0 1.22.31.34.31.46 1.12m12.14-12.01h5.68v19.57h1.06q.58 0 .91-.14.33-.15.68-.61l5.86-7.25q.37-.48.82-.73.45-.26 1.16-.26h5.2l-7.34 8.77q-.78 1.03-1.7 1.58.48.35.86.81t.73.99l7.86 11.45h-5.13q-.66 0-1.15-.22-.48-.22-.8-.79l-6.03-8.95q-.32-.53-.66-.69-.35-.16-1.04-.16h-1.29v10.81h-5.68z"/></svg>