<svg xmlns="http://www.w3.org/2000/svg" width="64" height="64" viewBox="0 0 64 64"><rect width="100%" height="100%" fill="#DDDDDD"/><path fill="#999999" d="M14.995 29.35h.61v4.34h-.71v-2.8q0-.17.02-.37l-1.31 2.47q-.1.17-.29.17h-.11q-.2 0-.29-.17l-1.32-2.47q0 .09.01.19t.01.18v2.8h-.71v-4.34h.6q.06 0 .1.01.04 0 .07.01t.06.04q.02.03.04.07l1.3 2.41.1.2q.04.1.08.21.05-.11.09-.22l.1-.2 1.28-2.4q.02-.04.05-.07t.06-.04.07-.01q.04-.01.09-.01m1.48 1.26h.75v3.08h-.75zm.85-.9q0 .1-.04.19-.04.08-.1.14-.07.07-.16.1-.08.04-.18.04t-.18-.04q-.09-.03-.15-.1-.06-.06-.1-.14-.04-.09-.04-.19 0-.09.04-.18t.1-.15.15-.1q.08-.04.18-.04t.18.04q.09.04.16.1.06.06.1.15t.04.18m2.7 1.23-.17.27q-.03.05-.06.07-.04.02-.09.02t-.11-.03l-.14-.07q-.09-.04-.19-.07t-.24-.03q-.22 0-.35.1-.12.09-.12.24 0 .1.06.17.07.06.17.11.11.06.25.1.13.04.27.08.14.05.27.11.14.07.25.16.1.09.17.23.06.13.06.32 0 .22-.08.4-.08.19-.23.33-.16.14-.39.21-.23.08-.53.08-.16 0-.31-.03t-.29-.08-.26-.12-.21-.15l.17-.28q.04-.05.08-.08.05-.03.12-.03t.13.04.14.09q.08.04.19.08t.28.04q.13 0 .22-.03.1-.03.16-.08.06-.06.09-.12.03-.07.03-.14 0-.11-.07-.18-.06-.07-.17-.12-.1-.05-.24-.09t-.28-.09-.28-.11q-.13-.07-.24-.17t-.17-.24q-.07-.14-.07-.35 0-.19.08-.36.07-.17.22-.3.14-.12.36-.2t.5-.08q.32 0 .58.11.26.1.44.27m2.64 0-.17.27q-.03.05-.07.07-.03.02-.08.02t-.11-.03q-.07-.03-.15-.07t-.18-.07q-.11-.03-.25-.03-.22 0-.34.1-.12.09-.12.24 0 .1.06.17.06.06.17.11.11.06.24.1l.28.08q.14.05.27.11.14.07.24.16.11.09.17.23.07.13.07.32 0 .22-.08.4-.08.19-.24.33-.15.14-.38.21-.23.08-.53.08-.16 0-.31-.03t-.29-.08-.26-.12-.21-.15l.17-.28q.03-.05.08-.08.04-.03.11-.03t.13.04q.07.04.15.09.08.04.19.08t.27.04q.14 0 .23-.03.1-.03.16-.08.06-.06.09-.12.03-.07.03-.14 0-.11-.07-.18-.06-.07-.17-.12t-.24-.09q-.14-.04-.28-.09t-.28-.11q-.14-.07-.24-.17-.11-.1-.17-.24-.07-.14-.07-.35 0-.19.08-.36.07-.17.22-.3.14-.12.36-.2t.5-.08q.32 0 .58.11.26.1.44.27m.61-.33h.74v3.08h-.74zm.85-.9q0 .1-.04.19-.04.08-.11.14-.06.07-.15.1-.08.04-.18.04t-.18-.04q-.09-.03-.15-.1-.07-.06-.1-.14-.04-.09-.04-.19 0-.09.04-.18.03-.09.1-.15.06-.06.15-.1.08-.04.18-.04t.18.04q.09.04.15.1.07.06.11.15t.04.18m1.29 1.04.05.24q.1-.09.2-.17t.22-.14q.11-.05.25-.08.13-.04.28-.04.26 0 .45.09.2.08.33.24.13.15.2.37.06.21.06.47v1.96h-.74v-1.96q0-.28-.13-.44-.13-.15-.39-.15-.19 0-.36.09-.17.08-.32.23v2.23h-.74v-3.08h.45q.15 0 .19.14m3.87 1.33q.14 0 .24-.04t.17-.11q.07-.06.1-.15.04-.1.04-.21 0-.23-.14-.36t-.41-.13-.41.13-.14.36q0 .11.04.2.03.1.1.16.07.07.17.11t.24.04m.84 1.75q0-.09-.06-.15-.05-.06-.14-.09-.1-.03-.22-.04-.13-.02-.27-.03-.14 0-.28-.01l-.29-.02q-.13.06-.2.16-.08.09-.08.21 0 .09.04.16t.13.12.23.08.34.03q.21 0 .36-.04.15-.03.25-.08.1-.06.14-.14.05-.07.05-.16m-.15-3.11h.88v.27q0 .14-.15.16l-.28.06q.06.15.06.34 0 .23-.09.42-.09.18-.25.31t-.38.2q-.23.07-.48.07-.09 0-.17-.01l-.17-.02q-.14.08-.14.19 0 .09.08.14.09.04.23.06t.32.02l.37.02q.19.02.37.05.18.04.32.12t.23.22q.08.14.08.36 0 .21-.1.4t-.29.34-.47.24-.63.09-.61-.06q-.25-.07-.43-.18-.17-.12-.25-.26-.08-.15-.08-.31 0-.22.13-.36.13-.15.35-.23-.12-.07-.19-.17-.07-.11-.07-.28 0-.07.02-.14.03-.07.08-.15.05-.07.12-.13.08-.07.18-.12-.23-.12-.37-.33-.13-.21-.13-.5 0-.22.09-.41.09-.18.26-.31.16-.13.38-.2.23-.07.49-.07.2 0 .37.04.18.04.32.12m1.33 1.47v-.62h1.55v.62zm4.89-2.43-.2.38q-.04.06-.08.09t-.1.03-.14-.05q-.07-.04-.17-.1t-.24-.1q-.14-.05-.32-.05-.17 0-.3.04-.12.04-.21.11-.08.08-.13.18-.04.1-.04.22 0 .15.09.25.08.1.22.18.15.07.33.12.18.06.36.13.19.06.37.15.18.08.32.21.15.13.23.32.09.19.09.46 0 .3-.1.55-.1.26-.3.45-.19.19-.47.3t-.64.11q-.21 0-.41-.04t-.38-.12q-.19-.07-.35-.18-.16-.1-.29-.23l.24-.39q.03-.04.08-.07t.1-.03q.07 0 .16.06l.21.14q.12.08.28.14t.38.06q.35 0 .54-.17.19-.16.19-.47 0-.17-.09-.27-.08-.11-.22-.19-.15-.07-.33-.12t-.36-.11q-.19-.06-.37-.14-.18-.09-.32-.22-.14-.14-.22-.34-.09-.2-.09-.5 0-.24.09-.46.1-.23.28-.4.18-.18.44-.28.27-.11.61-.11.38 0 .71.12.32.12.55.34m2.57.85h.74v3.08h-.45q-.15 0-.19-.14l-.05-.24q-.19.19-.41.31-.23.12-.54.12-.25 0-.45-.09-.19-.08-.32-.24-.13-.15-.2-.37-.07-.21-.07-.47v-1.96h.74v1.96q0 .28.13.43.13.16.39.16.2 0 .36-.09.17-.08.32-.23zm2.22.9v1.38q.12.15.27.22.15.06.31.06.18 0 .31-.06.14-.06.23-.19.1-.13.15-.34.05-.2.05-.48 0-.51-.17-.73-.16-.23-.48-.23-.21 0-.37.1t-.3.27m0-2.28v1.76q.18-.2.41-.31.23-.12.52-.12.26 0 .48.11.21.1.36.3.16.2.24.48.08.27.08.62 0 .38-.1.68-.09.31-.26.53-.17.21-.42.34-.24.11-.54.11-.14 0-.26-.02-.11-.03-.21-.08t-.18-.13q-.09-.07-.16-.16l-.04.21q-.01.07-.06.11-.04.03-.12.03h-.48v-4.46zm2.68 1.38h.75v3.18q0 .21-.05.38-.06.18-.17.31-.12.14-.3.21-.19.08-.46.08-.11 0-.2-.01-.09-.02-.18-.05l.02-.4q.01-.06.05-.07.04-.02.15-.02t.19-.02.12-.07q.05-.05.07-.13.01-.08.01-.21zm.85-.9q0 .1-.04.19-.04.08-.1.14-.07.07-.15.1-.09.04-.19.04t-.18-.04q-.09-.03-.15-.1-.06-.06-.1-.14-.04-.09-.04-.19 0-.09.04-.18t.1-.15.15-.1q.08-.04.18-.04t.19.04q.08.04.15.1.06.06.1.15t.04.18m1.24 2.09h1.4q0-.15-.04-.27-.04-.13-.12-.23-.09-.09-.21-.15t-.29-.06q-.32 0-.5.19-.19.18-.24.52m1.89.44h-1.91q.02.24.09.41.07.18.17.29.11.11.26.17.15.05.33.05t.31-.04.23-.09q.09-.05.17-.1.07-.04.14-.04.09 0 .14.07l.21.27q-.12.14-.28.24-.15.1-.31.16-.17.06-.34.08-.18.02-.34.02-.32 0-.6-.1-.27-.11-.48-.32-.2-.2-.32-.51-.11-.31-.11-.71 0-.32.1-.6t.29-.48q.19-.21.47-.33.27-.12.62-.12.29 0 .53.1.25.09.43.27.17.18.27.44t.1.59q0 .17-.03.23-.04.05-.14.05m3.13-1.25-.2.27q-.03.04-.06.07-.03.02-.09.02t-.11-.03q-.06-.04-.13-.08-.08-.04-.18-.08-.1-.03-.26-.03-.19 0-.34.07t-.24.2q-.1.13-.15.32t-.05.43.06.43q.05.19.15.33.1.13.24.19.14.07.32.07.17 0 .28-.04.11-.05.19-.1.07-.05.13-.09.05-.05.12-.05.09 0 .14.07l.21.27q-.12.14-.27.24-.14.1-.3.16-.15.06-.31.08-.17.02-.33.02-.28 0-.54-.1-.25-.11-.44-.31-.19-.21-.3-.5-.11-.3-.11-.67 0-.34.1-.63t.29-.5q.19-.22.47-.34t.64-.12q.34 0 .6.11.26.12.47.32m1.52 2.75q-.41 0-.62-.23t-.21-.62v-1.72h-.32q-.06 0-.1-.04t-.04-.12v-.29l.49-.08.16-.84q.01-.06.05-.1.05-.03.11-.03h.39v.97h.82v.53h-.82v1.67q0 .14.07.22t.19.08q.07 0 .12-.02.04-.01.08-.03.03-.02.06-.03.03-.02.05-.02.04 0 .06.02.02.01.04.05l.22.35q-.16.14-.37.21t-.43.07"/></svg>