<svg xmlns="http://www.w3.org/2000/svg" width="75" height="75" viewBox="0 0 75 75"><rect width="100%" height="100%" fill="#DDDDDD"/><path fill="#999999" d="M19.28 34.85h.6v4.34h-.71v-2.8q0-.17.02-.37l-1.31 2.47q-.09.17-.28.17h-.12q-.19 0-.28-.17l-1.33-2.47q.01.09.01.19.01.1.01.18v2.8h-.71v-4.34h.61q.05 0 .09.01.04 0 .07.01t.06.04.05.07l1.3 2.41q.05.1.09.2.05.1.09.21.04-.11.09-.22.04-.1.09-.2l1.28-2.4q.03-.04.05-.07.03-.03.06-.04t.07-.01q.04-.01.1-.01m1.48 1.26h.74v3.08h-.74zm.84-.9q0 .1-.04.19-.04.08-.1.14-.06.07-.15.1-.09.04-.19.04-.09 0-.18-.04-.08-.03-.15-.1-.06-.06-.1-.14-.04-.09-.04-.19 0-.09.04-.18t.1-.15q.07-.06.15-.1.09-.04.18-.04.1 0 .19.04t.15.1.1.15.04.18m2.7 1.23-.17.27q-.02.05-.06.07-.03.02-.08.02-.06 0-.12-.03l-.14-.07q-.08-.04-.18-.07-.11-.03-.25-.03-.22 0-.34.1-.13.09-.13.24 0 .1.07.17.06.06.17.11.11.06.24.1.14.04.27.08.14.05.28.11.13.07.24.16t.17.23q.07.13.07.32 0 .22-.08.4-.08.19-.24.33-.15.14-.38.21-.23.08-.53.08-.16 0-.31-.03-.16-.03-.3-.08-.13-.05-.25-.12t-.21-.15l.17-.28q.03-.05.08-.08.04-.03.11-.03t.13.04.14.09q.09.04.19.08.11.04.28.04.13 0 .23-.03.09-.03.15-.08.07-.06.09-.12.03-.07.03-.14 0-.11-.06-.18-.07-.07-.17-.12-.11-.05-.25-.09-.13-.04-.27-.09-.15-.05-.28-.11-.14-.07-.25-.17-.1-.1-.17-.24-.06-.14-.06-.35 0-.19.07-.36.08-.17.22-.3.15-.12.37-.2.21-.08.5-.08.32 0 .58.11.26.1.43.27m2.64 0-.17.27q-.03.05-.06.07t-.08.02q-.06 0-.12-.03l-.14-.07q-.08-.04-.19-.07-.1-.03-.24-.03-.22 0-.35.1-.12.09-.12.24 0 .1.06.17.07.06.18.11.1.06.24.1.13.04.27.08.14.05.28.11.13.07.24.16.1.09.17.23.06.13.06.32 0 .22-.08.4-.08.19-.23.33-.16.14-.39.21-.23.08-.53.08-.16 0-.31-.03t-.29-.08-.26-.12q-.11-.07-.2-.15l.17-.28q.03-.05.07-.08.05-.03.12-.03t.13.04.14.09q.08.04.19.08t.28.04q.13 0 .23-.03.09-.03.15-.08.06-.06.09-.12.03-.07.03-.14 0-.11-.06-.18-.07-.07-.18-.12-.1-.05-.24-.09-.13-.04-.28-.09-.14-.05-.28-.11-.13-.07-.24-.17t-.17-.24-.06-.35q0-.19.07-.36.08-.17.22-.3.15-.12.36-.2.22-.08.51-.08.31 0 .58.11.26.1.43.27m.62-.33h.74v3.08h-.74zm.84-.9q0 .1-.04.19-.04.08-.1.14-.07.07-.15.1-.09.04-.19.04-.09 0-.18-.04-.09-.03-.15-.1-.06-.06-.1-.14-.04-.09-.04-.19 0-.09.04-.18t.1-.15.15-.1.18-.04q.1 0 .19.04.08.04.15.1.06.06.1.15t.04.18m1.3 1.04.05.24q.09-.09.19-.17.11-.08.22-.14.12-.05.25-.08.13-.04.29-.04.25 0 .45.09.19.08.32.24.13.15.2.37.07.21.07.47v1.96H31v-1.96q0-.28-.13-.44-.13-.15-.4-.15-.19 0-.36.09-.16.08-.31.23v2.23h-.74v-3.08h.45q.14 0 .19.14m3.86 1.33q.14 0 .24-.04.11-.04.17-.11.07-.06.11-.15.03-.1.03-.21 0-.23-.14-.36-.13-.13-.41-.13-.27 0-.41.13-.13.13-.13.36 0 .11.03.2.04.1.1.16.07.07.18.11.1.04.23.04m.84 1.75q0-.09-.05-.15-.06-.06-.15-.09t-.22-.04q-.12-.02-.26-.03-.14 0-.29-.01l-.29-.02q-.12.06-.2.16-.07.09-.07.21 0 .09.04.16t.12.12q.09.05.23.08.15.03.35.03.21 0 .36-.04.15-.03.24-.08.1-.06.15-.14.04-.07.04-.16m-.15-3.11h.89v.27q0 .14-.16.16l-.28.06q.07.15.07.34 0 .23-.09.42-.1.18-.26.31t-.38.2-.48.07q-.09 0-.17-.01l-.16-.02q-.15.08-.15.19 0 .09.09.14.08.04.22.06t.32.02l.37.02q.19.02.37.05.18.04.32.12t.23.22.09.36q0 .21-.11.4-.1.19-.29.34t-.46.24q-.28.09-.64.09-.34 0-.6-.06-.26-.07-.43-.18-.17-.12-.26-.26-.08-.15-.08-.31 0-.22.13-.36.13-.15.36-.23-.12-.07-.2-.17-.07-.11-.07-.28 0-.07.03-.14.02-.07.07-.15.05-.07.13-.13.07-.07.17-.12-.23-.12-.36-.33-.14-.21-.14-.5 0-.22.09-.41.1-.18.26-.31t.39-.2q.22-.07.48-.07.2 0 .38.04.17.04.31.12m1.33 1.47v-.62h1.56v.62zm3.29-.14h1.38l-.52-1.44q-.04-.1-.08-.23-.05-.13-.09-.28-.04.15-.08.28-.04.14-.08.23zm1.11-2.7 1.7 4.34h-.62q-.11 0-.18-.05-.06-.05-.09-.13l-.33-.89h-1.8l-.32.89q-.02.07-.09.12-.07.06-.17.06h-.63l1.7-4.34zm2.69 1.45.04.35q.15-.28.34-.44.2-.16.47-.16.21 0 .34.1l-.04.55q-.02.06-.05.08t-.07.02q-.05 0-.14-.01-.09-.02-.17-.02-.12 0-.22.04-.1.03-.17.1-.08.07-.14.16-.06.1-.11.22v1.9h-.74v-3.08h.44q.11 0 .16.04.04.04.06.15m2.61 2.94q-.41 0-.62-.23t-.21-.62v-1.72h-.32q-.06 0-.1-.04t-.04-.12v-.29l.49-.08.16-.84q.01-.06.05-.1.05-.03.11-.03h.39v.97h.82v.53h-.82v1.67q0 .14.07.22t.19.08q.07 0 .12-.02.04-.01.08-.03.03-.02.06-.03.03-.02.05-.02.04 0 .06.02.02.01.04.05l.22.35q-.16.14-.37.21t-.43.07m5.03-3.13h.57l-.98 3.08h-.59q-.11 0-.15-.13l-.55-1.78q-.02-.09-.05-.18-.02-.09-.03-.18-.02.09-.05.18l-.04.18-.57 1.78q-.03.13-.15.13h-.57l-.98-3.08h.59q.08 0 .14.04t.07.1l.45 1.64q.03.14.05.27.03.13.05.26.03-.13.07-.26t.08-.27l.51-1.65q.02-.06.07-.09.05-.04.13-.04h.32q.08 0 .14.04.05.03.07.09l.49 1.65q.04.14.08.27.03.13.07.26.03-.26.11-.53l.45-1.64q.02-.06.07-.1.06-.04.13-.04m2.35-.05q.34 0 .62.11.28.12.48.32t.31.5q.11.29.11.66 0 .36-.11.65-.11.3-.31.51-.2.2-.48.31t-.62.11q-.35 0-.63-.11t-.48-.31q-.2-.21-.31-.51-.11-.29-.11-.65 0-.37.11-.66.11-.3.31-.5t.48-.32q.28-.11.63-.11m0 2.6q.38 0 .57-.25.18-.26.18-.76t-.18-.76q-.19-.26-.57-.26-.39 0-.58.26-.19.27-.19.76 0 .5.19.76.19.25.58.25m2.74-2.36.04.35q.15-.28.35-.44.19-.16.46-.16.22 0 .35.1l-.05.55q-.02.06-.05.08-.02.02-.07.02t-.14-.01q-.08-.02-.17-.02-.12 0-.22.04-.09.03-.17.1t-.14.16q-.05.1-.1.22v1.9h-.75v-3.08h.44q.11 0 .16.04.04.04.06.15m1.58-1.57h.74v2.55h.14q.08 0 .12-.01.04-.02.09-.08l.76-.95q.05-.06.11-.09.06-.04.15-.04h.68l-.96 1.14q-.1.14-.22.21.06.05.11.11t.1.13l1.02 1.49h-.67q-.08 0-.15-.03-.06-.03-.1-.1l-.79-1.17q-.04-.07-.08-.09-.05-.02-.14-.02h-.17v1.41h-.74z"/></svg>