<svg xmlns="http://www.w3.org/2000/svg" width="340" height="480" viewBox="0 0 340 480"><rect width="100%" height="100%" fill="#DDDDDD"/><path fill="#999999" d="M84.945 227.635h2.84v20.24h-3.32v-13.08q0-.78.09-1.69l-6.12 11.49q-.43.83-1.33.83h-.53q-.9 0-1.33-.83l-6.19-11.53q.04.46.07.91t.03.82v13.08h-3.32v-20.24h2.84q.25 0 .44.01.18.01.32.07.15.06.27.18.12.13.23.34l6.06 11.24q.24.45.44.92.21.48.4.98.2-.51.41-1 .21-.48.45-.93l5.98-11.21q.11-.21.23-.34.13-.12.28-.18.14-.06.33-.07.18-.01.43-.01m6.92 5.88h3.47v14.36h-3.47zm3.94-4.19q0 .45-.18.84t-.48.69q-.3.29-.71.47-.4.17-.87.17-.44 0-.84-.17-.4-.18-.7-.47-.29-.3-.46-.69-.18-.39-.18-.84 0-.46.18-.87.17-.4.46-.7.3-.29.7-.47.4-.17.84-.17.47 0 .87.17.41.18.71.47.3.3.48.7.18.41.18.87m12.6 5.74-.78 1.25q-.14.22-.29.31-.16.09-.4.09-.25 0-.54-.14-.28-.14-.66-.31-.38-.18-.86-.32t-1.14-.14q-1.02 0-1.61.44-.58.43-.58 1.13 0 .46.3.78.31.31.8.55.5.24 1.13.43t1.28.41 1.28.51 1.13.73.8 1.06q.3.61.3 1.48 0 1.04-.37 1.91-.37.88-1.1 1.51-.73.64-1.8 1-1.07.35-2.47.35-.74 0-1.45-.13t-1.36-.37-1.2-.56q-.56-.32-.98-.7l.8-1.32q.16-.23.37-.36t.53-.13.61.19q.28.18.66.39t.89.39 1.3.18q.61 0 1.05-.15.44-.14.73-.38t.42-.55q.13-.32.13-.65 0-.51-.3-.83t-.8-.56q-.49-.24-1.13-.43t-1.3-.41q-.67-.22-1.3-.53-.64-.3-1.14-.76-.49-.46-.8-1.13-.3-.67-.3-1.63 0-.88.35-1.68.35-.79 1.03-1.39.68-.59 1.7-.95 1.01-.36 2.34-.36 1.49 0 2.7.49 1.22.49 2.03 1.29m12.31 0-.78 1.25q-.14.22-.3.31-.15.09-.39.09-.25 0-.54-.14t-.66-.31q-.38-.18-.87-.32-.48-.14-1.14-.14-1.02 0-1.6.44-.58.43-.58 1.13 0 .46.3.78.3.31.8.55t1.13.43 1.28.41 1.28.51 1.12.73q.5.44.8 1.06.3.61.3 1.48 0 1.04-.37 1.91-.37.88-1.1 1.51-.72.64-1.8 1-1.07.35-2.47.35-.74 0-1.45-.13-.7-.13-1.35-.37t-1.21-.56q-.55-.32-.97-.7l.8-1.32q.15-.23.36-.36t.53-.13q.33 0 .61.19.29.18.67.39t.89.39 1.29.18q.62 0 1.06-.15.44-.14.73-.38.28-.24.42-.55.13-.32.13-.65 0-.51-.3-.83t-.8-.56-1.13-.43q-.64-.19-1.31-.41-.66-.22-1.3-.53-.63-.3-1.13-.76t-.8-1.13-.3-1.63q0-.88.35-1.68.35-.79 1.03-1.39.68-.59 1.69-.95 1.02-.36 2.35-.36 1.48 0 2.7.49t2.03 1.29m2.87-1.55h3.47v14.36h-3.47zm3.95-4.19q0 .45-.18.84-.19.39-.49.69-.3.29-.7.47-.41.17-.87.17-.45 0-.85-.17-.4-.18-.69-.47-.3-.3-.47-.69-.18-.39-.18-.84 0-.46.18-.87.17-.4.47-.7.29-.29.69-.47.4-.17.85-.17.46 0 .87.17.4.18.7.47.3.3.49.7.18.41.18.87m6.05 4.82.23 1.13q.44-.43.92-.81.48-.37 1.02-.63.54-.25 1.16-.4.61-.15 1.34-.15 1.18 0 2.09.4t1.52 1.12.92 1.72q.32 1 .32 2.21v9.14h-3.46v-9.14q0-1.32-.6-2.04-.61-.72-1.84-.72-.89 0-1.68.41-.78.4-1.48 1.1v10.39h-3.46v-14.36h2.11q.68 0 .89.63m18.04 6.2q.65 0 1.12-.18.48-.17.79-.48.32-.31.48-.74.16-.44.16-.95 0-1.07-.64-1.69-.63-.62-1.91-.62-1.27 0-1.91.62t-.64 1.69q0 .5.16.93.17.44.48.75.32.32.8.49.48.18 1.11.18m3.91 8.17q0-.42-.25-.68-.26-.27-.69-.42-.43-.14-1.02-.21-.58-.07-1.23-.11l-1.34-.06q-.69-.03-1.35-.11-.58.32-.93.75-.36.44-.36 1.01 0 .38.19.71t.6.57q.41.23 1.07.37.66.13 1.61.13.97 0 1.67-.15.7-.14 1.15-.4.46-.26.67-.62t.21-.78m-.69-14.51h4.13v1.28q0 .62-.74.76l-1.29.24q.3.74.3 1.62 0 1.07-.43 1.93t-1.18 1.46q-.76.6-1.79.93t-2.22.33q-.42 0-.81-.04t-.77-.11q-.67.4-.67.91 0 .43.4.63.4.21 1.05.29.66.08 1.5.1.84.03 1.72.1.89.07 1.73.24.84.18 1.49.55.66.38 1.06 1.03t.4 1.68q0 .95-.47 1.84-.47.9-1.36 1.6t-2.18 1.13q-1.3.42-2.95.42-1.62 0-2.83-.31-1.2-.32-2-.84-.8-.53-1.19-1.21-.39-.69-.39-1.43 0-1.01.61-1.69t1.67-1.08q-.57-.3-.91-.79-.33-.49-.33-1.28 0-.33.11-.67.12-.34.35-.68.24-.33.59-.64.35-.3.82-.53-1.09-.59-1.71-1.57-.63-.98-.63-2.3 0-1.06.43-1.92t1.19-1.47 1.81-.93q1.04-.33 2.27-.33.93 0 1.74.19t1.48.56m6.2 6.86v-2.89h7.26v2.89zm15.36-.63h6.44l-2.46-6.74q-.18-.45-.38-1.06-.2-.62-.39-1.33-.18.71-.38 1.33-.2.63-.38 1.09zm5.14-12.6 7.95 20.24h-2.91q-.49 0-.8-.24-.31-.25-.46-.61l-1.51-4.13h-8.39l-1.51 4.13q-.11.32-.43.58-.33.27-.8.27h-2.94l7.96-20.24zm12.56 6.74.21 1.63q.67-1.29 1.59-2.02.93-.74 2.19-.74.99 0 1.59.43l-.22 2.59q-.07.26-.2.36-.14.11-.36.11-.21 0-.62-.07-.42-.07-.81-.07-.57 0-1.02.16-.45.17-.81.49-.35.31-.63.76-.27.45-.51 1.02v8.85h-3.45v-14.36h2.03q.53 0 .74.18.21.19.28.68m12.18 13.72q-1.88 0-2.88-1.05-1-1.06-1-2.92v-8.02h-1.47q-.28 0-.48-.19-.19-.18-.19-.54v-1.37l2.31-.38.73-3.92q.07-.28.26-.44.2-.15.51-.15h1.79v4.52h3.83v2.47h-3.83v7.78q0 .67.33 1.05t.9.38q.32 0 .54-.08t.38-.16.28-.16q.13-.08.26-.08.15 0 .25.08t.21.23l1.03 1.68q-.75.63-1.73.95t-2.03.32m23.5-14.58h2.64l-4.57 14.36h-2.77q-.48 0-.66-.62l-2.57-8.3q-.13-.42-.24-.83-.1-.41-.17-.83-.08.42-.19.84-.1.43-.23.85l-2.62 8.27q-.17.62-.74.62h-2.66l-4.55-14.36h2.76q.38 0 .64.18.27.18.35.46l2.06 7.67q.15.63.27 1.23.12.61.21 1.21.15-.6.32-1.21.18-.6.38-1.23l2.38-7.7q.08-.28.32-.46.25-.18.6-.18h1.53q.36 0 .62.18t.34.46l2.31 7.7q.18.63.34 1.24.17.61.32 1.21.18-1.19.52-2.45l2.11-7.67q.1-.28.35-.46t.6-.18m10.95-.23q1.6 0 2.91.52t2.24 1.47 1.43 2.32q.51 1.38.51 3.07 0 1.71-.51 3.08-.5 1.37-1.43 2.34-.93.96-2.24 1.48t-2.91.52q-1.61 0-2.92-.52-1.32-.52-2.25-1.48-.93-.97-1.44-2.34t-.51-3.08q0-1.69.51-3.07.51-1.37 1.44-2.32t2.25-1.47q1.31-.52 2.92-.52m0 12.14q1.79 0 2.65-1.2.87-1.21.87-3.53 0-2.33-.87-3.54-.86-1.22-2.65-1.22-1.82 0-2.69 1.22-.88 1.23-.88 3.54t.88 3.52q.87 1.21 2.69 1.21m12.78-11.05.21 1.63q.68-1.29 1.6-2.02.92-.74 2.18-.74 1 0 1.6.43l-.22 2.59q-.07.26-.21.36-.13.11-.35.11-.21 0-.63-.07-.41-.07-.8-.07-.58 0-1.02.16-.45.17-.81.49-.36.31-.63.76t-.51 1.02v8.85h-3.46v-14.36h2.03q.53 0 .74.18.21.19.28.68m7.4-7.3h3.45v11.91h.65q.35 0 .55-.09t.41-.37l3.57-4.41q.23-.3.5-.45t.71-.15h3.16l-4.46 5.33q-.48.63-1.04.97.29.21.52.49.24.28.45.6l4.78 6.97h-3.12q-.4 0-.7-.13-.29-.14-.49-.49l-3.67-5.44q-.19-.32-.4-.42t-.63-.1h-.79v6.58h-3.45z"/></svg>