<svg xmlns="http://www.w3.org/2000/svg" width="132" height="132" viewBox="0 0 132 132"><rect width="100%" height="100%" fill="#DDDDDD"/><path fill="#999999" d="M31.99 60.695h1.22v8.68h-1.42v-5.6q0-.34.03-.73l-2.62 4.93q-.18.35-.57.35h-.23q-.38 0-.57-.35l-2.65-4.95q.02.2.03.39t.01.36v5.6H23.8v-8.68h1.22q.11 0 .19.01.07.01.14.03.06.02.11.08.05.05.1.14l2.6 4.82q.1.19.19.4l.17.42q.08-.23.17-.43.09-.21.19-.4l2.57-4.81q.04-.09.1-.14.05-.06.11-.08.07-.02.15-.03.07-.01.18-.01m2.97 2.52h1.48v6.16h-1.48zm1.69-1.79q0 .19-.08.36t-.21.29q-.13.13-.3.21-.17.07-.37.07-.19 0-.37-.07-.17-.08-.29-.21-.13-.12-.2-.29-.08-.17-.08-.36 0-.2.08-.37.07-.18.2-.3.12-.13.29-.2.18-.08.37-.08.2 0 .37.08.17.07.3.2.13.12.21.3.08.17.08.37m5.4 2.46-.34.53q-.06.1-.12.14-.07.04-.17.04-.11 0-.23-.06-.13-.06-.29-.14-.16-.07-.37-.13-.2-.06-.49-.06-.43 0-.68.18-.25.19-.25.49 0 .2.13.33.13.14.34.24t.48.18.55.18.55.22.48.31q.22.19.34.45.13.27.13.64 0 .44-.16.82-.15.37-.47.65-.31.27-.77.42-.46.16-1.06.16-.31 0-.62-.06-.3-.06-.58-.16t-.52-.24q-.23-.14-.41-.3l.34-.56q.07-.11.16-.16t.22-.05q.14 0 .26.07.13.08.29.17t.38.17.56.08q.26 0 .45-.07.19-.06.31-.16t.18-.24q.06-.13.06-.28 0-.21-.13-.35t-.34-.24q-.22-.1-.49-.18t-.56-.18q-.28-.1-.56-.23-.27-.12-.48-.32t-.34-.49-.13-.69q0-.38.15-.72.15-.35.44-.6.29-.26.72-.41.44-.15 1.01-.15.64 0 1.16.21t.87.55m5.27 0-.33.53q-.06.1-.13.14t-.17.04q-.11 0-.23-.06l-.28-.14q-.17-.07-.37-.13-.21-.06-.49-.06-.44 0-.69.18-.25.19-.25.49 0 .2.13.33.13.14.34.24.22.1.49.18t.54.18q.28.1.55.22t.49.31q.21.19.34.45.13.27.13.64 0 .44-.16.82-.16.37-.47.65-.31.27-.77.42-.46.16-1.06.16-.32 0-.62-.06-.31-.06-.59-.16-.27-.1-.51-.24t-.42-.3l.34-.56q.07-.11.16-.16t.23-.05.26.07q.12.08.28.17.17.09.38.17.22.08.56.08.26 0 .45-.07.19-.06.31-.16.13-.1.18-.24.06-.13.06-.28 0-.21-.13-.35t-.34-.24-.49-.18q-.27-.08-.55-.18-.29-.1-.56-.23-.27-.12-.49-.32-.21-.2-.34-.49t-.13-.69q0-.38.15-.72.15-.35.44-.6.29-.26.73-.41.43-.15 1-.15.64 0 1.16.21t.87.55m1.23-.67h1.49v6.16h-1.49zm1.69-1.79q0 .19-.07.36-.08.17-.21.29-.13.13-.3.21-.18.07-.38.07-.19 0-.36-.07-.17-.08-.3-.21-.12-.12-.2-.29-.07-.17-.07-.36 0-.2.07-.37.08-.18.2-.3.13-.13.3-.2.17-.08.36-.08.2 0 .38.08.17.07.3.2.13.12.21.3.07.17.07.37m2.6 2.06.1.49q.18-.19.39-.35.21-.15.44-.27.23-.11.49-.17.27-.06.58-.06.5 0 .89.17t.65.48q.27.31.4.74.14.43.14.94v3.92h-1.49v-3.92q0-.56-.25-.87-.26-.31-.79-.31-.38 0-.72.17-.34.18-.64.48v4.45h-1.48v-6.16h.91q.29 0 .38.27m7.73 2.66q.28 0 .48-.07.2-.08.34-.21.13-.13.2-.32.07-.18.07-.41 0-.45-.27-.72t-.82-.27-.82.27-.27.72q0 .22.07.41.07.18.2.32.14.13.34.21.21.07.48.07m1.67 3.51q0-.18-.1-.3-.11-.11-.3-.18-.18-.06-.43-.09t-.53-.04q-.28-.02-.58-.03-.29-.01-.58-.05-.24.14-.4.33-.15.18-.15.43 0 .16.08.3t.26.24q.18.11.46.16.28.06.69.06t.71-.06q.3-.07.5-.18.19-.11.28-.26t.09-.33m-.29-6.23h1.77v.56q0 .26-.32.32l-.55.1q.13.32.13.7 0 .45-.19.82-.18.37-.5.63-.33.26-.77.4t-.95.14q-.18 0-.35-.02t-.33-.05q-.29.18-.29.39 0 .19.17.28.18.08.46.12t.64.04q.36.01.74.04t.74.11q.36.07.64.24.28.16.45.44t.17.71q0 .41-.2.8-.2.38-.58.68t-.94.48q-.55.19-1.26.19-.7 0-1.21-.14-.52-.13-.86-.36-.34-.22-.51-.52-.17-.29-.17-.61 0-.43.26-.72t.72-.47q-.25-.12-.39-.33t-.14-.56q0-.13.05-.28t.15-.29q.1-.15.25-.28.15-.12.35-.23-.47-.25-.74-.67-.26-.42-.26-.98 0-.46.18-.83t.51-.63.77-.4q.45-.13.98-.13.4 0 .74.08.35.08.64.23m2.66 2.94v-1.23h3.11v1.23zm9.78-4.85-.4.76q-.08.13-.16.18-.08.06-.2.06t-.27-.09l-.35-.21q-.21-.11-.48-.21-.27-.09-.64-.09-.34 0-.59.08t-.43.23q-.17.14-.25.34t-.08.44q0 .31.17.51.17.21.45.35.28.15.64.26t.74.24.74.3.64.43q.28.27.45.64.17.38.17.92 0 .59-.2 1.1-.2.52-.59.9-.38.38-.94.6t-1.28.22q-.41 0-.81-.09-.41-.08-.78-.23-.36-.15-.69-.36-.32-.21-.57-.46l.47-.78q.06-.08.16-.14.09-.06.2-.06.15 0 .32.13.18.12.42.27t.56.27q.32.13.77.13.69 0 1.07-.33t.38-.94q0-.34-.18-.56-.17-.21-.45-.36t-.64-.25-.73-.22-.73-.29-.65-.44q-.28-.27-.45-.67-.17-.41-.17-1 0-.48.19-.93t.55-.79q.36-.35.89-.56.52-.21 1.21-.21.77 0 1.41.24.65.24 1.11.67m5.15 1.7h1.48v6.16h-.91q-.29 0-.37-.27l-.1-.49q-.38.38-.84.62-.45.24-1.07.24-.5 0-.89-.17-.39-.18-.65-.49-.27-.31-.4-.74-.14-.43-.14-.94v-3.92h1.49v3.92q0 .56.26.87t.78.31q.38 0 .72-.17t.64-.47zm4.42 1.8v2.76q.26.31.55.44.3.12.63.12.34 0 .61-.12.28-.12.47-.38.19-.27.29-.67.11-.41.11-.97 0-1.01-.34-1.47-.34-.45-.97-.45-.42 0-.74.19-.32.2-.61.55m0-4.56v3.52q.38-.39.83-.62t1.03-.23q.54 0 .97.21t.73.6.46.95q.17.56.17 1.26 0 .75-.19 1.36t-.53 1.04q-.35.44-.83.68-.49.24-1.08.24-.29 0-.52-.06-.24-.05-.44-.16-.19-.1-.36-.25-.16-.14-.31-.32l-.07.41q-.04.16-.12.22-.09.07-.24.07h-.98v-8.92zm5.38 2.76h1.49v6.37q0 .4-.11.76-.1.35-.33.62-.23.26-.61.42-.37.15-.91.15-.21 0-.39-.03-.18-.02-.38-.08l.06-.8q.02-.12.09-.16.08-.03.3-.03.23 0 .38-.04.15-.05.24-.15t.13-.26.04-.4zm1.69-1.79q0 .19-.08.36-.07.17-.2.29-.13.13-.31.21-.18.07-.37.07-.2 0-.36-.07-.17-.08-.3-.21-.12-.12-.2-.29-.07-.17-.07-.36 0-.2.07-.37.08-.18.2-.3.13-.13.3-.2.16-.08.36-.08.19 0 .37.08.18.07.31.2.13.12.2.3.08.17.08.37m2.48 4.16h2.8q0-.28-.08-.54-.09-.25-.25-.45-.16-.19-.41-.3t-.58-.11q-.64 0-1.01.37-.37.36-.47 1.03m3.78.9h-3.81q.04.47.17.82.13.34.35.57.21.22.51.33t.66.11.62-.08.45-.19q.2-.1.35-.18.14-.09.28-.09.19 0 .28.14l.42.54q-.24.29-.55.49-.31.19-.64.31-.33.11-.68.16-.34.05-.67.05-.64 0-1.19-.21-.55-.22-.96-.63-.41-.42-.64-1.04-.24-.61-.24-1.42 0-.63.21-1.19.2-.55.58-.96t.93-.65 1.24-.24q.58 0 1.08.18.49.19.84.55.36.35.56.87t.2 1.19q0 .33-.07.45-.08.12-.28.12m6.26-2.5-.39.54q-.07.08-.13.13t-.18.05-.23-.07q-.1-.07-.25-.16t-.36-.15q-.21-.07-.51-.07-.39 0-.69.14-.29.14-.49.4-.19.27-.29.64-.09.38-.09.85 0 .49.1.88.11.38.3.64.2.26.48.4.29.13.64.13t.57-.09q.22-.08.37-.19.15-.1.26-.19t.25-.09q.18 0 .27.14l.43.54q-.25.29-.54.49-.28.19-.59.31-.31.11-.64.16t-.65.05q-.57 0-1.07-.21-.51-.22-.89-.62-.37-.41-.59-1t-.22-1.35q0-.68.19-1.26.2-.58.58-1 .37-.42.93-.66t1.29-.24q.69 0 1.2.22.52.22.94.64m3.03 5.49q-.8 0-1.23-.46-.43-.45-.43-1.25v-3.44h-.63q-.12 0-.2-.07-.09-.08-.09-.24v-.59l.99-.16.32-1.68q.03-.12.11-.18.08-.07.22-.07h.76v1.94h1.65v1.05h-1.65v3.34q0 .29.14.45.15.16.39.16.14 0 .23-.03.1-.03.16-.07.07-.04.13-.07.05-.03.11-.03t.1.03q.05.03.09.1l.45.72q-.33.27-.75.41t-.87.14"/></svg>