<svg xmlns="http://www.w3.org/2000/svg" width="64" height="64" viewBox="0 0 64 64"><rect width="100%" height="100%" fill="#DDDDDD"/><path fill="#999999" d="M16.84 29.345h.61v4.34h-.71v-2.8q0-.17.02-.37l-1.31 2.47q-.09.17-.29.17h-.11q-.19 0-.29-.17l-1.32-2.47q.01.09.01.19.01.1.01.18v2.8h-.71v-4.34h.61q.05 0 .09.01.04 0 .07.01t.06.04q.02.03.05.07l1.3 2.41q.05.1.09.2t.09.21l.08-.22.1-.2 1.28-2.4q.03-.04.05-.07.03-.03.06-.04t.07-.01q.04-.01.09-.01m1.49 1.26h.74v3.08h-.74zm.84-.9q0 .1-.04.19-.04.08-.1.14-.06.07-.15.1-.09.04-.19.04-.09 0-.18-.04-.08-.03-.15-.1-.06-.06-.1-.14-.04-.09-.04-.19 0-.09.04-.18t.1-.15q.07-.06.15-.1.09-.04.18-.04.1 0 .19.04t.15.1.1.15.04.18m2.7 1.23-.17.27q-.03.05-.06.07t-.08.02q-.06 0-.12-.03l-.14-.07q-.08-.04-.19-.07-.1-.03-.24-.03-.22 0-.34.1-.13.09-.13.24 0 .1.07.17.06.06.17.11.1.06.24.1.13.04.27.08.14.05.28.11.13.07.24.16t.17.23q.06.13.06.32 0 .22-.07.4-.08.19-.24.33t-.39.21q-.23.08-.53.08-.15 0-.31-.03-.15-.03-.29-.08t-.25-.12q-.12-.07-.21-.15l.17-.28q.03-.05.08-.08.04-.03.11-.03t.13.04.14.09q.08.04.19.08t.28.04q.13 0 .23-.03.09-.03.15-.08.06-.06.09-.12.03-.07.03-.14 0-.11-.06-.18-.07-.07-.17-.12-.11-.05-.25-.09-.13-.04-.28-.09-.14-.05-.27-.11-.14-.07-.25-.17-.1-.1-.17-.24-.06-.14-.06-.35 0-.19.07-.36.08-.17.22-.3.15-.12.37-.2.21-.08.5-.08.32 0 .58.11.26.1.43.27m2.64 0-.17.27q-.03.05-.06.07-.04.02-.09.02t-.11-.03l-.14-.07q-.09-.04-.19-.07t-.24-.03q-.22 0-.35.1-.12.09-.12.24 0 .1.06.17.07.06.17.11.11.06.25.1.13.04.27.08.14.05.27.11.14.07.25.16.1.09.17.23.06.13.06.32 0 .22-.08.4-.08.19-.23.33-.16.14-.39.21-.23.08-.53.08-.16 0-.31-.03t-.29-.08-.26-.12-.21-.15l.17-.28q.04-.05.08-.08.05-.03.12-.03t.13.04.14.09q.08.04.19.08t.28.04q.13 0 .22-.03.1-.03.16-.08.06-.06.09-.12.03-.07.03-.14 0-.11-.07-.18-.06-.07-.17-.12-.1-.05-.24-.09t-.28-.09-.28-.11q-.13-.07-.24-.17t-.17-.24q-.07-.14-.07-.35 0-.19.08-.36.07-.17.22-.3.15-.12.36-.2.22-.08.5-.08.32 0 .58.11.26.1.44.27m.61-.33h.75v3.08h-.75zm.85-.9q0 .1-.04.19-.04.08-.1.14-.07.07-.15.1-.09.04-.19.04t-.18-.04q-.09-.03-.15-.1-.06-.06-.1-.14-.04-.09-.04-.19 0-.09.04-.18t.1-.15.15-.1q.08-.04.18-.04t.19.04q.08.04.15.1.06.06.1.15t.04.18m1.3 1.04.05.24q.09-.09.19-.17.11-.08.22-.14.12-.05.25-.08.13-.04.29-.04.25 0 .45.09.19.08.32.24.13.15.2.37.07.21.07.47v1.96h-.74v-1.96q0-.28-.13-.44-.13-.15-.4-.15-.19 0-.36.09-.16.08-.31.23v2.23h-.75v-3.08h.46q.14 0 .19.14m3.86 1.33q.14 0 .24-.04.11-.04.17-.11.07-.06.1-.15.04-.1.04-.21 0-.23-.14-.36-.13-.13-.41-.13-.27 0-.41.13-.13.13-.13.36 0 .11.03.2.04.1.1.16.07.07.17.11.11.04.24.04m.84 1.75q0-.09-.05-.15-.06-.06-.15-.09t-.22-.04q-.12-.02-.26-.03-.14 0-.29-.01l-.29-.02q-.12.06-.2.16-.08.09-.08.21 0 .09.04.16.05.07.13.12.09.05.23.08t.35.03.36-.04q.15-.03.24-.08.1-.06.15-.14.04-.07.04-.16m-.15-3.11h.89v.27q0 .14-.16.16l-.28.06q.07.15.07.34 0 .23-.1.42-.09.18-.25.31t-.38.2-.48.07q-.09 0-.17-.01l-.17-.02q-.14.08-.14.19 0 .09.09.14.08.04.22.06t.32.02l.37.02q.19.02.37.05.18.04.32.12t.23.22q.08.14.08.36 0 .21-.1.4t-.29.34-.47.24q-.27.09-.63.09-.34 0-.6-.06-.26-.07-.43-.18-.17-.12-.26-.26-.08-.15-.08-.31 0-.22.13-.36.13-.15.36-.23-.12-.07-.2-.17-.07-.11-.07-.28 0-.07.03-.14.02-.07.07-.15.05-.07.13-.13.07-.07.17-.12-.23-.12-.36-.33-.14-.21-.14-.5 0-.22.09-.41.1-.18.26-.31t.39-.2q.22-.07.48-.07.2 0 .38.04.17.04.31.12m1.33 1.47v-.62h1.56v.62zm4.52-.68h1.44v1.76q-.33.24-.71.36-.37.11-.8.11-.53 0-.96-.17-.43-.16-.73-.46-.31-.29-.47-.7-.17-.41-.17-.89 0-.49.16-.9.16-.4.45-.7.3-.29.71-.45.42-.17.94-.17.26 0 .49.05.23.04.43.11.19.07.36.18.16.1.29.23l-.23.37q-.05.08-.14.1t-.19-.04-.19-.11q-.1-.06-.23-.1-.12-.05-.27-.07-.15-.03-.35-.03-.32 0-.58.11t-.44.31-.28.48-.1.63q0 .37.1.67.11.29.3.49.2.2.47.31t.61.11q.24 0 .43-.06.19-.05.37-.13v-.79h-.55q-.08 0-.12-.04-.04-.05-.04-.11zm2.69.29h1.39q0-.15-.04-.27-.04-.13-.12-.23-.08-.09-.2-.15-.13-.06-.29-.06-.32 0-.51.19-.18.18-.23.52m1.88.44h-1.9q.02.24.08.41.07.18.18.29t.25.17q.15.05.33.05t.31-.04.23-.09.17-.1q.08-.04.15-.04.09 0 .13.07l.22.27q-.13.14-.28.24t-.32.16-.34.08-.33.02q-.32 0-.6-.1-.28-.11-.48-.32-.2-.2-.32-.51t-.12-.71q0-.32.1-.6.11-.28.3-.48.19-.21.46-.33.28-.12.62-.12.29 0 .54.1.24.09.42.27t.28.44.1.59q0 .17-.04.23-.03.05-.14.05m1.38-1.49.05.24q.09-.09.19-.17.11-.08.22-.14.12-.05.25-.08.13-.04.29-.04.25 0 .44.09.2.08.33.24.13.15.2.37.07.21.07.47v1.96h-.74v-1.96q0-.28-.13-.44-.13-.15-.4-.15-.19 0-.36.09-.16.08-.31.23v2.23h-.75v-3.08h.46q.14 0 .19.14m3.39.05.05.35q.14-.28.34-.44t.47-.16q.21 0 .34.1l-.05.55q-.01.06-.04.08t-.08.02q-.04 0-.13-.01-.09-.02-.17-.02-.13 0-.22.04-.1.03-.18.1-.07.07-.13.16-.06.1-.11.22v1.9h-.74v-3.08h.43q.12 0 .16.04.05.04.06.15m2.17 1h1.4q0-.15-.04-.27-.04-.13-.12-.23-.08-.09-.21-.15-.12-.06-.29-.06-.32 0-.5.19-.19.18-.24.52m1.89.44h-1.9q.01.24.08.41.07.18.17.29.11.11.26.17.15.05.33.05t.31-.04.23-.09.17-.1q.07-.04.14-.04.09 0 .14.07l.21.27q-.12.14-.27.24-.16.1-.32.16-.17.06-.34.08t-.34.02q-.32 0-.59-.1-.28-.11-.48-.32-.21-.2-.32-.51-.12-.31-.12-.71 0-.32.1-.6t.29-.48q.19-.21.47-.33.27-.12.62-.12.29 0 .53.1.25.09.43.27.17.18.27.44.11.26.11.59 0 .17-.04.23-.04.05-.14.05"/></svg>