<svg xmlns="http://www.w3.org/2000/svg" width="150" height="150" viewBox="0 0 150 150"><rect width="100%" height="100%" fill="#DDDDDD"/><path fill="#999999" d="M38.545 69.695h1.22v8.68h-1.42v-5.6q0-.34.03-.73l-2.62 4.93q-.19.35-.57.35h-.23q-.38 0-.57-.35l-2.65-4.95q.02.2.03.39t.01.36v5.6h-1.42v-8.68h1.22q.11 0 .18.01.08.01.15.03.06.02.11.08.05.05.1.14l2.6 4.82q.1.19.19.4l.17.42q.08-.23.17-.43.09-.21.19-.4l2.56-4.81q.05-.09.11-.14.05-.06.11-.08.07-.02.14-.03.08-.01.19-.01m2.96 2.52h1.49v6.16h-1.49zm1.7-1.79q0 .19-.08.36t-.21.29q-.13.13-.3.21-.18.07-.37.07-.2 0-.37-.07-.17-.08-.29-.21-.13-.12-.2-.29-.08-.17-.08-.36 0-.2.08-.37.07-.18.2-.3.12-.13.29-.2.17-.08.37-.08.19 0 .37.08.17.07.3.2.13.12.21.3.08.17.08.37m5.4 2.46-.34.53q-.06.1-.13.14-.06.04-.16.04-.11 0-.23-.06-.13-.06-.29-.14-.16-.07-.37-.13t-.49-.06q-.44 0-.69.18-.24.19-.24.49 0 .2.12.33.13.14.35.24.21.1.48.18t.55.18.55.22.48.31.34.45q.13.27.13.64 0 .44-.16.82-.16.37-.47.65-.31.27-.77.42-.46.16-1.06.16-.32 0-.62-.06t-.58-.16-.52-.24q-.23-.14-.41-.3l.34-.56q.06-.11.15-.16t.23-.05.26.07q.13.08.29.17t.38.17.55.08q.27 0 .46-.07.19-.06.31-.16t.18-.24q.06-.13.06-.28 0-.21-.13-.35t-.34-.24q-.22-.1-.49-.18t-.56-.18q-.28-.1-.56-.23-.27-.12-.48-.32-.22-.2-.34-.49-.13-.29-.13-.69 0-.38.15-.72.15-.35.44-.6.29-.26.72-.41.44-.15 1.01-.15.63 0 1.16.21.52.21.87.55m5.27 0-.34.53q-.06.1-.12.14-.07.04-.17.04-.11 0-.23-.06t-.29-.14q-.16-.07-.36-.13-.21-.06-.49-.06-.44 0-.69.18-.25.19-.25.49 0 .2.13.33.13.14.34.24t.48.18.55.18.55.22.49.31q.21.19.34.45.13.27.13.64 0 .44-.16.82-.16.37-.47.65-.32.27-.77.42-.46.16-1.06.16-.32 0-.62-.06-.31-.06-.59-.16t-.51-.24q-.24-.14-.42-.3l.34-.56q.07-.11.16-.16t.23-.05q.13 0 .26.07.12.08.28.17t.38.17.56.08q.26 0 .45-.07.19-.06.31-.16.13-.1.18-.24.06-.13.06-.28 0-.21-.13-.35t-.34-.24-.49-.18q-.27-.08-.55-.18-.29-.1-.56-.23-.28-.12-.49-.32t-.34-.49-.13-.69q0-.38.15-.72.15-.35.44-.6.29-.26.73-.41.43-.15 1-.15.64 0 1.16.21t.87.55m1.23-.67h1.49v6.16h-1.49zm1.69-1.79q0 .19-.08.36-.07.17-.2.29-.13.13-.31.21-.17.07-.37.07-.19 0-.36-.07-.17-.08-.3-.21-.12-.12-.2-.29-.07-.17-.07-.36 0-.2.07-.37.08-.18.2-.3.13-.13.3-.2.17-.08.36-.08.2 0 .37.08.18.07.31.2.13.12.2.3.08.17.08.37m2.59 2.06.11.49q.18-.19.39-.35.21-.15.44-.27.23-.11.49-.17.27-.06.58-.06.5 0 .89.17t.65.48.4.74q.13.43.13.94v3.92h-1.48v-3.92q0-.56-.26-.87-.25-.31-.78-.31-.39 0-.72.17-.34.18-.64.48v4.45h-1.48v-6.16h.91q.28 0 .37.27m7.74 2.66q.27 0 .48-.07.2-.08.34-.21.13-.13.2-.32.07-.18.07-.41 0-.45-.27-.72-.28-.27-.82-.27-.55 0-.82.27t-.27.72q0 .22.07.41.06.18.2.32.13.13.34.21.21.07.48.07m1.67 3.51q0-.18-.11-.3-.1-.11-.29-.18-.19-.06-.43-.09-.25-.03-.53-.04-.28-.02-.58-.03t-.58-.05q-.24.14-.4.33-.15.18-.15.43 0 .16.08.3t.26.24q.18.11.46.16.28.06.69.06t.71-.06q.3-.07.5-.18.19-.11.28-.26t.09-.33m-.29-6.23h1.77v.56q0 .26-.32.32l-.55.1q.12.32.12.7 0 .45-.18.82t-.51.63q-.32.26-.76.4t-.95.14q-.18 0-.35-.02t-.33-.05q-.29.18-.29.39 0 .19.17.28.17.08.46.12.28.04.64.04.36.01.74.04.37.03.73.11.36.07.65.24.28.16.45.44t.17.71q0 .41-.2.8-.2.38-.58.68t-.94.48q-.55.19-1.26.19-.7 0-1.21-.14-.52-.13-.86-.36-.34-.22-.51-.52-.17-.29-.17-.61 0-.43.26-.72t.72-.47q-.25-.12-.39-.33-.15-.21-.15-.56 0-.13.06-.28.05-.15.15-.29.09-.15.24-.28.15-.12.36-.23-.47-.25-.74-.67-.26-.42-.26-.98 0-.46.18-.83t.51-.63.77-.4q.45-.13.98-.13.39 0 .74.08t.64.23m2.66 2.94v-1.23h3.1v1.23zm6.58-.27h2.76l-1.06-2.88q-.08-.19-.16-.46-.08-.26-.17-.57-.08.31-.16.57-.08.27-.16.47zm2.2-5.4 3.41 8.68h-1.25q-.21 0-.34-.1-.13-.11-.2-.27l-.65-1.77h-3.59l-.65 1.77q-.05.14-.19.26-.13.11-.34.11h-1.26l3.42-8.68zm5.38 2.9.09.69q.29-.55.69-.87.39-.31.93-.31.43 0 .69.19l-.1 1.11q-.03.1-.09.15-.05.04-.15.04-.09 0-.27-.03-.17-.03-.34-.03-.25 0-.44.08-.19.07-.34.2-.16.14-.27.33-.12.19-.22.44v3.79h-1.49v-6.16h.87q.23 0 .32.08.09.09.12.3m5.22 5.88q-.8 0-1.23-.46-.43-.45-.43-1.25v-3.44h-.63q-.12 0-.2-.07-.09-.08-.09-.24v-.59l.99-.16.31-1.68q.03-.12.12-.18.08-.07.21-.07h.77v1.94h1.65v1.05h-1.65v3.34q0 .29.14.45t.39.16q.14 0 .23-.03t.16-.07.13-.07q.05-.03.1-.03.07 0 .11.03t.09.1l.45.72q-.33.27-.75.41t-.87.14m10.08-6.26h1.12l-1.95 6.16h-1.19q-.2 0-.28-.26l-1.11-3.56q-.05-.18-.09-.36-.05-.18-.08-.36-.04.18-.08.37l-.1.36-1.12 3.55q-.07.26-.32.26h-1.14l-1.95-6.16h1.18q.16 0 .28.08.11.08.15.2l.88 3.29q.07.27.12.53.05.25.08.51.07-.26.15-.51.07-.26.15-.53l1.02-3.3q.04-.12.15-.2.1-.08.25-.08h.65q.16 0 .27.08t.15.2l.99 3.3q.08.27.15.53.06.26.13.52.08-.51.22-1.05l.91-3.29q.04-.12.15-.2t.26-.08m4.69-.09q.68 0 1.24.22t.96.63.62 1q.21.58.21 1.31t-.21 1.32q-.22.59-.62 1-.4.42-.96.64t-1.24.22q-.69 0-1.26-.22-.56-.22-.96-.64-.4-.41-.62-1t-.22-1.32.22-1.31q.22-.59.62-1t.96-.63q.57-.22 1.26-.22m0 5.2q.77 0 1.14-.52.36-.51.36-1.51 0-.99-.36-1.52-.37-.52-1.14-.52-.78 0-1.16.53-.37.52-.37 1.51t.37 1.51q.38.52 1.16.52m5.48-4.73.09.69q.28-.55.68-.87.4-.31.94-.31.42 0 .68.19l-.1 1.11q-.03.1-.08.15-.06.04-.16.04-.09 0-.26-.03-.18-.03-.35-.03-.24 0-.44.08-.19.07-.34.2-.15.14-.27.33t-.22.44v3.79h-1.48v-6.16h.87q.23 0 .32.08.09.09.12.3m3.16-3.14h1.49v5.11h.27q.15 0 .24-.04t.18-.16l1.53-1.89q.09-.12.21-.19t.3-.07h1.36l-1.92 2.29q-.2.27-.44.41.13.09.23.21.09.12.18.26l2.06 2.99h-1.34q-.18 0-.3-.06-.13-.05-.21-.2l-1.57-2.34q-.09-.14-.18-.18t-.27-.04h-.33v2.82h-1.49z"/></svg>