<svg xmlns="http://www.w3.org/2000/svg" width="132" height="132" viewBox="0 0 132 132"><rect width="100%" height="100%" fill="#DDDDDD"/><path fill="#999999" d="M34.475 60.245h1.32v9.4h-1.55v-6.07q0-.37.04-.79l-2.84 5.34q-.2.38-.61.38h-.25q-.42 0-.62-.38l-2.87-5.36q.02.22.03.43.01.2.01.38v6.07h-1.54v-9.4h1.32q.12 0 .2.01.09 0 .16.03t.12.08q.06.06.11.16l2.81 5.22q.11.21.21.43.09.22.18.45.09-.24.19-.46.1-.23.21-.43l2.77-5.21q.06-.1.12-.16.05-.05.12-.08t.15-.03q.09-.01.21-.01m3.21 2.73h1.61v6.67h-1.61zm1.83-1.94q0 .21-.08.39-.09.18-.23.32-.14.13-.33.21t-.4.08-.39-.08q-.19-.08-.32-.21-.14-.14-.22-.32t-.08-.39q0-.22.08-.41.08-.18.22-.32.13-.14.32-.22.18-.08.39-.08t.4.08.33.22.23.32q.08.19.08.41m5.85 2.66-.36.58q-.07.1-.14.15-.07.04-.18.04-.12 0-.25-.07-.14-.06-.31-.14-.18-.08-.4-.15-.23-.06-.53-.06-.48 0-.75.2-.26.2-.26.52 0 .22.13.37.14.14.38.25.23.11.52.2t.59.19q.31.11.6.24t.52.34q.23.2.37.49.14.28.14.69 0 .48-.17.88-.17.41-.51.71-.34.29-.84.46-.49.16-1.14.16-.35 0-.68-.06-.32-.06-.63-.17-.3-.11-.56-.26-.25-.15-.45-.33l.37-.61q.07-.11.17-.17.1-.05.25-.05t.28.08q.14.09.31.18.18.1.41.18.24.09.6.09.29 0 .5-.07.2-.07.33-.18.14-.11.2-.25.06-.15.06-.31 0-.23-.14-.38t-.37-.26-.53-.2q-.29-.09-.6-.19t-.61-.24q-.29-.14-.52-.36-.23-.21-.37-.52-.14-.32-.14-.76 0-.41.16-.78t.48-.65q.31-.27.78-.44.48-.16 1.09-.16.69 0 1.26.22.56.23.94.6m5.71 0-.36.58q-.07.1-.14.15-.07.04-.18.04-.12 0-.25-.07-.13-.06-.31-.14-.17-.08-.4-.15-.22-.06-.53-.06-.47 0-.74.2t-.27.52q0 .22.14.37.14.14.37.25t.52.2.6.19q.3.11.59.24t.52.34q.24.2.38.49.14.28.14.69 0 .48-.18.88-.17.41-.51.71-.34.29-.83.46-.5.16-1.15.16-.34 0-.67-.06t-.63-.17q-.31-.11-.56-.26-.26-.15-.45-.33l.37-.61q.07-.11.17-.17.09-.05.24-.05t.29.08q.13.09.3.18.18.1.42.18.23.09.6.09.28 0 .49-.07.2-.07.34-.18.13-.11.19-.25.06-.15.06-.31 0-.23-.14-.38t-.37-.26-.52-.2q-.3-.09-.61-.19t-.6-.24q-.3-.14-.53-.36-.23-.21-.37-.52-.14-.32-.14-.76 0-.41.16-.78.17-.37.48-.65.32-.27.79-.44.47-.16 1.09-.16.69 0 1.25.22.57.23.94.6m1.34-.72h1.61v6.67h-1.61zm1.83-1.94q0 .21-.09.39-.08.18-.22.32-.14.13-.33.21t-.4.08-.39-.08q-.19-.08-.33-.21-.13-.14-.21-.32t-.08-.39q0-.22.08-.41.08-.18.21-.32.14-.14.33-.22.18-.08.39-.08t.4.08.33.22.22.32q.09.19.09.41m2.81 2.23.11.53q.2-.2.42-.37.23-.18.48-.3t.53-.18q.29-.07.63-.07.54 0 .97.18.42.19.7.52.28.34.43.8.15.47.15 1.03v4.24h-1.61v-4.24q0-.62-.28-.95-.28-.34-.85-.34-.42 0-.78.19t-.69.52v4.82h-1.6v-6.67h.98q.31 0 .41.29m8.38 2.88q.29 0 .52-.08.22-.08.36-.22.15-.15.22-.35.08-.2.08-.44 0-.49-.3-.78-.29-.29-.88-.29-.6 0-.89.29-.3.29-.3.78 0 .23.08.44.07.2.22.34.14.15.37.23.22.08.52.08m1.81 3.8q0-.2-.12-.32-.11-.12-.32-.19-.2-.07-.47-.1t-.57-.05-.62-.03q-.33-.01-.63-.05-.27.15-.43.35-.17.2-.17.47 0 .17.09.33.09.15.28.26t.5.17q.3.06.74.06.45 0 .78-.07.32-.06.53-.18t.31-.29.1-.36m-.32-6.74h1.92v.6q0 .28-.35.35l-.59.11q.13.34.13.75 0 .5-.2.9-.19.4-.55.67-.35.28-.82.44-.48.15-1.03.15-.2 0-.38-.02t-.36-.05q-.31.19-.31.42 0 .2.18.3.19.09.5.13.3.04.69.05t.8.04.8.11q.39.09.7.26.3.18.49.48.18.3.18.78 0 .44-.22.85-.21.42-.63.75-.41.32-1.01.52t-1.37.2q-.75 0-1.31-.15t-.93-.39-.55-.56q-.19-.32-.19-.66 0-.47.29-.79.28-.31.77-.5-.26-.14-.42-.37-.16-.22-.16-.59 0-.15.06-.31t.16-.32q.11-.15.27-.29t.39-.25q-.51-.28-.8-.73-.29-.46-.29-1.07 0-.49.2-.89t.55-.68q.36-.29.84-.44t1.06-.15q.42 0 .8.09t.69.26m2.88 3.18v-1.34h3.37v1.34zm7.13-.29h2.99l-1.14-3.13q-.09-.2-.18-.49t-.18-.62q-.09.33-.18.62t-.17.51zm2.39-5.85 3.69 9.4h-1.35q-.23 0-.37-.11-.15-.12-.22-.29l-.7-1.91h-3.89l-.71 1.91q-.05.15-.2.28-.15.12-.37.12h-1.36l3.7-9.4zm5.83 3.13.09.76q.32-.6.75-.94.42-.34 1.01-.34.46 0 .74.2l-.1 1.2q-.04.12-.1.17t-.16.05-.29-.04q-.19-.03-.38-.03-.26 0-.47.08t-.38.22q-.16.15-.29.36-.12.21-.23.47v4.11h-1.61v-6.67h.94q.25 0 .35.09.09.09.13.31m5.65 6.37q-.87 0-1.33-.49-.47-.49-.47-1.35v-3.73h-.68q-.13 0-.22-.08-.09-.09-.09-.25v-.64l1.07-.18.34-1.82q.03-.13.12-.2t.23-.07h.84v2.1h1.78v1.14h-1.78v3.62q0 .31.15.48.15.18.42.18.15 0 .25-.04.1-.03.17-.07l.14-.07q.06-.04.11-.04.08 0 .12.04.05.03.1.1l.48.78q-.35.29-.81.44-.45.15-.94.15m2.67-6.77h1.61v6.67h-1.61zm1.83-1.94q0 .21-.08.39-.09.18-.23.32-.14.13-.33.21t-.4.08-.39-.08q-.19-.08-.33-.21-.13-.14-.21-.32t-.08-.39q0-.22.08-.41.08-.18.21-.32.14-.14.33-.22.18-.08.39-.08t.4.08.33.22.23.32q.08.19.08.41m5.85 2.66-.36.58q-.07.1-.14.15-.07.04-.18.04-.12 0-.25-.07-.14-.06-.31-.14-.18-.08-.4-.15-.23-.06-.53-.06-.48 0-.75.2t-.27.52q0 .22.14.37.14.14.37.25.24.11.53.2t.59.19q.31.11.6.24t.52.34q.23.2.37.49.14.28.14.69 0 .48-.17.88-.17.41-.51.71-.34.29-.84.46-.49.16-1.14.16-.35 0-.68-.06-.32-.06-.63-.17-.3-.11-.56-.26-.25-.15-.45-.33l.37-.61q.07-.11.17-.17.1-.05.25-.05t.28.08q.13.09.31.18.18.1.41.18.24.09.6.09.29 0 .49-.07.21-.07.34-.18.14-.11.2-.25.06-.15.06-.31 0-.23-.14-.38t-.37-.26-.53-.2q-.29-.09-.6-.19t-.61-.24q-.29-.14-.52-.36-.23-.21-.37-.52-.14-.32-.14-.76 0-.41.16-.78t.48-.65q.31-.27.78-.44.48-.16 1.09-.16.69 0 1.26.22.56.23.94.6m3.5 6.05q-.87 0-1.33-.49-.47-.49-.47-1.35v-3.73h-.68q-.13 0-.22-.08-.09-.09-.09-.25v-.64l1.07-.18.34-1.82q.03-.13.12-.2t.24-.07h.83v2.1h1.78v1.14h-1.78v3.62q0 .31.15.48.15.18.42.18.15 0 .25-.04.1-.03.18-.07.07-.04.13-.07.06-.04.12-.04.07 0 .11.04.05.03.1.1l.48.78q-.35.29-.8.44-.46.15-.95.15"/></svg>