<svg xmlns="http://www.w3.org/2000/svg" width="322" height="400" viewBox="0 0 322 400"><rect width="100%" height="100%" fill="#DDDDDD"/><path fill="#999999" d="M85.81 186.285h3.15v22.41h-3.67v-14.48q0-.87.09-1.87l-6.78 12.72q-.48.92-1.47.92h-.59q-.99 0-1.47-.92l-6.85-12.77q.05.51.08 1.01.03.49.03.91v14.48h-3.68v-22.41h3.15q.28 0 .48.01.2.02.37.08.16.06.29.2t.26.37l6.71 12.45q.26.5.49 1.02.22.53.44 1.09.21-.58.45-1.11.23-.53.49-1.03l6.62-12.42q.13-.23.27-.37.13-.14.3-.2.16-.06.36-.08.2-.01.48-.01m7.66 6.51h3.84v15.9h-3.84zm4.37-4.64q0 .5-.2.93-.2.44-.54.76-.33.33-.78.52t-.96.19q-.5 0-.94-.19t-.77-.52q-.32-.32-.51-.76-.2-.43-.2-.93 0-.51.2-.96.19-.45.51-.77.33-.33.77-.52.44-.2.94-.2.51 0 .96.2.45.19.78.52.34.32.54.77t.2.96m13.95 6.36-.87 1.38q-.15.25-.32.35t-.44.1q-.28 0-.59-.16-.32-.15-.74-.35-.42-.19-.95-.35-.54-.15-1.27-.15-1.13 0-1.77.48t-.64 1.25q0 .52.33.87.33.34.88.61.55.26 1.25.47t1.42.46 1.42.56q.69.32 1.24.81t.89 1.17q.33.68.33 1.64 0 1.15-.41 2.12t-1.22 1.67q-.8.71-1.99 1.1-1.18.4-2.73.4-.83 0-1.61-.15t-1.5-.41-1.34-.62q-.61-.36-1.07-.78l.88-1.45q.17-.27.4-.4.24-.14.59-.14.36 0 .68.2t.73.43q.42.23.99.44.56.2 1.43.2.68 0 1.17-.17.49-.16.81-.42.32-.27.46-.61.15-.35.15-.73 0-.55-.33-.91-.34-.36-.89-.62t-1.25-.47q-.71-.21-1.44-.46-.74-.25-1.45-.58-.7-.33-1.25-.85-.55-.51-.88-1.25-.34-.75-.34-1.8 0-.98.39-1.86t1.14-1.54 1.87-1.06q1.13-.39 2.6-.39 1.64 0 2.99.54t2.25 1.43m13.62 0-.86 1.38q-.16.25-.33.35t-.43.1q-.28 0-.6-.16-.32-.15-.74-.35-.41-.19-.95-.35-.53-.15-1.26-.15-1.13 0-1.78.48-.64.48-.64 1.25 0 .52.33.87.34.34.89.61.55.26 1.24.47.7.21 1.42.46t1.42.56q.7.32 1.25.81t.88 1.17q.34.68.34 1.64 0 1.15-.42 2.12-.41.97-1.21 1.67-.81.71-1.99 1.1-1.19.4-2.74.4-.82 0-1.6-.15-.79-.15-1.51-.41t-1.33-.62-1.08-.78l.89-1.45q.17-.27.4-.4.23-.14.59-.14.35 0 .67.2t.74.43.98.44q.57.2 1.44.2.68 0 1.17-.17.48-.16.8-.42.32-.27.47-.61.14-.35.14-.73 0-.55-.33-.91t-.88-.62-1.26-.47q-.7-.21-1.44-.46t-1.44-.58q-.71-.33-1.26-.85-.55-.51-.88-1.25-.33-.75-.33-1.8 0-.98.38-1.86.39-.88 1.14-1.54.76-.66 1.88-1.06 1.12-.39 2.6-.39 1.64 0 2.99.54t2.24 1.43m3.18-1.72h3.85v15.9h-3.85zm4.37-4.64q0 .5-.2.93-.2.44-.53.76-.34.33-.79.52t-.96.19q-.49 0-.93-.19-.45-.19-.77-.52-.33-.32-.52-.76-.19-.43-.19-.93 0-.51.19-.96t.52-.77q.32-.33.77-.52.44-.2.93-.2.51 0 .96.2.45.19.79.52.33.32.53.77t.2.96m6.7 5.33.26 1.26q.48-.48 1.02-.89.53-.41 1.13-.7t1.28-.45 1.49-.16q1.3 0 2.31.44 1 .44 1.68 1.24.67.8 1.02 1.91t.35 2.44v10.12h-3.83v-10.12q0-1.46-.67-2.26-.66-.8-2.03-.8-.99 0-1.86.45-.86.45-1.64 1.23v11.5h-3.83v-15.9h2.34q.75 0 .98.69m19.98 6.87q.71 0 1.24-.19.53-.2.87-.54.35-.34.53-.82t.18-1.05q0-1.18-.71-1.87-.7-.69-2.11-.69t-2.12.69q-.7.69-.7 1.87 0 .56.18 1.04.17.48.52.82.35.35.89.55.53.19 1.23.19m4.32 9.05q0-.46-.28-.76-.28-.29-.76-.45-.48-.17-1.12-.24-.64-.08-1.36-.12t-1.49-.07-1.5-.12q-.63.35-1.03.83-.39.48-.39 1.12 0 .42.21.78.21.37.66.63.46.26 1.19.41t1.78.15q1.07 0 1.85-.17.77-.16 1.27-.44.51-.29.74-.69.23-.39.23-.86m-.76-16.07h4.58v1.43q0 .68-.83.83l-1.42.27q.32.82.32 1.79 0 1.18-.47 2.14-.47.95-1.31 1.61-.84.67-1.97 1.04-1.14.36-2.46.36-.47 0-.9-.05-.43-.04-.85-.12-.75.45-.75 1.01 0 .48.44.7.45.23 1.17.32.73.09 1.66.12.93.02 1.91.1.98.07 1.91.27.93.19 1.65.61.73.42 1.18 1.14.44.72.44 1.85 0 1.06-.52 2.05t-1.51 1.77q-.98.77-2.41 1.24-1.44.48-3.27.48-1.79 0-3.13-.35-1.33-.35-2.21-.93-.89-.58-1.32-1.34-.44-.76-.44-1.58 0-1.12.68-1.87.67-.75 1.85-1.2-.63-.33-1.01-.87-.37-.54-.37-1.43 0-.35.13-.73t.39-.76q.26-.37.64-.7.39-.33.92-.6-1.21-.65-1.9-1.73-.69-1.09-.69-2.55 0-1.17.47-2.13.48-.95 1.32-1.62.84-.68 2-1.04 1.15-.35 2.52-.35 1.02 0 1.92.21t1.64.61m6.87 7.59v-3.19h8.03v3.19zm17-.69h7.13l-2.72-7.46q-.21-.49-.42-1.18-.22-.68-.44-1.47-.2.79-.42 1.48-.21.69-.41 1.2zm5.69-13.95 8.81 22.41h-3.23q-.54 0-.88-.27t-.51-.68l-1.68-4.57h-9.28l-1.68 4.57q-.12.36-.48.66-.35.29-.88.29h-3.25l8.81-22.41zm13.91 7.47.23 1.8q.74-1.43 1.76-2.24 1.03-.82 2.42-.82 1.1 0 1.77.48l-.25 2.87q-.08.28-.22.4-.15.11-.4.11-.23 0-.69-.08-.46-.07-.89-.07-.63 0-1.13.18-.5.19-.89.54-.4.35-.7.84-.3.5-.57 1.13v9.8h-3.82v-15.9h2.24q.59 0 .83.21.23.21.31.75m13.48 15.19q-2.08 0-3.18-1.17-1.11-1.17-1.11-3.23v-8.89h-1.63q-.31 0-.53-.2-.21-.2-.21-.6v-1.52l2.55-.42.81-4.34q.08-.31.29-.48.22-.17.56-.17h1.99v5.01h4.24v2.72h-4.24v8.62q0 .75.36 1.17.36.41 1 .41.36 0 .6-.08.24-.09.41-.18.18-.09.32-.18.14-.08.28-.08.17 0 .28.08.11.09.23.26l1.15 1.86q-.84.7-1.92 1.05-1.09.36-2.25.36m6.36-16.15h3.84v15.9h-3.84zm4.37-4.64q0 .5-.21.93-.2.44-.53.76-.33.33-.78.52t-.96.19q-.5 0-.94-.19t-.77-.52q-.32-.32-.52-.76-.19-.43-.19-.93 0-.51.19-.96.2-.45.52-.77.33-.33.77-.52.44-.2.94-.2.51 0 .96.2.45.19.78.52.33.32.53.77.21.45.21.96m13.95 6.36-.87 1.38q-.16.25-.33.35t-.43.1q-.28 0-.6-.16-.32-.15-.73-.35-.42-.19-.96-.35-.53-.15-1.26-.15-1.13 0-1.78.48-.64.48-.64 1.25 0 .52.33.87.34.34.89.61.55.26 1.25.47.69.21 1.41.46t1.42.56q.7.32 1.25.81t.88 1.17q.34.68.34 1.64 0 1.15-.41 2.12t-1.22 1.67q-.81.71-1.99 1.1-1.19.4-2.74.4-.82 0-1.6-.15-.79-.15-1.51-.41t-1.33-.62-1.08-.78l.89-1.45q.17-.27.4-.4.23-.14.59-.14t.67.2q.32.2.74.43t.98.44q.57.2 1.44.2.68 0 1.17-.17.49-.16.8-.42.32-.27.47-.61.15-.35.15-.73 0-.55-.34-.91-.33-.36-.88-.62t-1.26-.47q-.7-.21-1.44-.46-.73-.25-1.44-.58-.7-.33-1.25-.85-.55-.51-.89-1.25-.33-.75-.33-1.8 0-.98.39-1.86.38-.88 1.14-1.54.75-.66 1.87-1.06 1.12-.39 2.6-.39 1.64 0 2.99.54t2.25 1.43m8.35 14.43q-2.08 0-3.18-1.17-1.11-1.17-1.11-3.23v-8.89h-1.63q-.31 0-.53-.2-.21-.2-.21-.6v-1.52l2.55-.42.81-4.34q.08-.31.29-.48.22-.17.56-.17h1.99v5.01h4.24v2.72h-4.24v8.62q0 .75.36 1.17.36.41 1 .41.36 0 .6-.08.24-.09.42-.18.17-.09.31-.18.14-.08.28-.08.17 0 .28.08.11.09.23.26l1.15 1.86q-.84.7-1.92 1.05-1.09.36-2.25.36"/></svg>